<?xml version="1.0" encoding="UTF-8"?>
<svg id="b" data-name="Layer 2" xmlns="http://www.w3.org/2000/svg" xmlns:xlink="http://www.w3.org/1999/xlink" viewBox="0 0 339 339">
  <defs>
    <linearGradient id="d" x1="0" y1="169.5" x2="339" y2="169.5" gradientTransform="translate(0 339) rotate(-90)" gradientUnits="userSpaceOnUse">
      <stop offset="0" stop-color="#def7e9"/>
      <stop offset=".26" stop-color="#ebf7ee"/>
      <stop offset=".59" stop-color="#f5f7f1"/>
      <stop offset="1" stop-color="#f9f7f3"/>
    </linearGradient>
  </defs>
  <g id="c" data-name="Layer 3">
    <g>
      <circle cx="169.5" cy="169.5" r="169.5" style="fill: url(#d); stroke-width: 0px;"/>
      <g>
        <path d="m164.93,99.43l7.97-7.34,8.03,7.34-8.06-15.5-7.95,15.5" style="fill: #29576a; stroke: #29576a; stroke-width: .15px;"/>
        <path d="m172.91,66.72l-3.79,9.81,3.76,7.39.03-17.2" style="fill: #29576a; stroke: #29576a; stroke-width: .15px;"/>
        <path d="m172.91,92.08v-25.36m-8.24,15.46l8.22,1.74-17.05,4.01m10,1.17l7.05-5.18-7.95,15.5m16.01,0l-8.06-15.5,7.16,5.18m10-1.17l-17.16-4.01,8.33-1.74m5.66-8.8l-13.99,10.55,3.88-7.39m-7.64,0l3.76,7.39-13.88-10.55" style="fill: none; stroke: #29576a; stroke-linecap: round; stroke-miterlimit: 11.34; stroke-width: .51px;"/>
        <path d="m180.94,99.43l-.9-10.33,10-1.17-8.83-5.75,5.66-8.8-10.11,3.15-3.85-9.81-3.79,9.81-10.11-3.15,5.66,8.8-8.83,5.75,10,1.17-.9,10.33,7.97-7.34,8.03,7.34Z" style="fill: none; stroke: #29576a; stroke-linecap: round; stroke-miterlimit: 11.34; stroke-width: .73px;"/>
        <path d="m159.5,105.91h-3.03c-.77,0-1.46.34-1.93.87-.41.47-.67,1.08-.67,1.75,0,1.44,1.16,2.6,2.6,2.6h5.97l-2.94-5.22Z" style="fill: #29576a; stroke: #29576a; stroke-width: .15px;"/>
        <path d="m171.39,105.91h-5.94l2.94,5.22h5.94l-2.94-5.22Z" style="fill: #29576a; stroke: #29576a; stroke-width: .15px;"/>
        <path d="m183.27,105.91h-5.94l2.94,5.22h5.94l-2.94-5.22Z" style="fill: #29576a; stroke: #29576a; stroke-width: .15px;"/>
        <rect x="44.06" y="201.05" width="241.79" height="3.26" style="fill: #29576a; stroke: #29576a; stroke-width: .15px;"/>
        <path d="m232.1,151.28s-2.45,2.82-1.86,4.43c.84,2.3,4.47,5.13,3.92,8.74-1.58,10.46-9.58,21.39-13.82,30.61-.79,1.71-1.75,1.71-3.04,1.94-.95.17-1.82,1.05-2.51,1.63-.87-.69-2.63-.8-2.83.35-.65-.37-1.73-.29-2.3.73,0,0-1.07-.11-1.54.12-.64.31-1.24.85-1.32,1.55-.07.59.28,1.03.28,1.03,0,0,.38-1.02,1.12-1.14.23-.04.42.26.66.24.23-.01.63-.32.63-.32,0,0,1.14.76,1.79.94,1.07.29,2.21.26,3.31.14,1.18-.13,3.5-.8,3.5-.8.73.43.99.63,2.25.61,1.3-.02,2.81-.45,3.6-2.02.38-.74-.53-3.57-.53-3.57.79-1.15,1.97-2.02,1.99-3.33.72-.54,1.38-1.11,1.28-2.22,1.08-.78,1.42-1.66,1.45-2.57.9-.6,1.58-1.39,1.55-2.79,1-.71,1.47-1.65,1.54-2.79.78-.6,1.57-1.19,1.66-3.02.47-.53,1.55-.83,1.83-3.36,1.38-.59,2.06-1.86,1.76-3.24,0,0,.57-2.31,1.47-3.32s2.43-2.69,2.85-4.34c.33-1.29-.5-3.06-.75-4.81-.55-3.81.75-5.35.75-5.35l-8.67-4.06Zm9.12,3.24s.82,3.03,2.05,4.23c1.75,1.72,4.57,4.7,5.5,6.79,2.46,5.6,1.92,20.75,1.32,28.08-.22,2.68-.22,1.84-.68,3.24-.39,1.18-1.28,1.21-2.57,1.44-.95.17-1.95.52-2.65,1.1-.87-.69-2.63-.8-2.83.35-.65-.37-1.73-.29-2.3.73,0,0-1.07-.11-1.54.12-.64.31-1.24.85-1.32,1.55-.07.59.28,1.03.28,1.03,0,0,.38-1.02,1.12-1.14.23-.04.42.26.66.24.23-.01.63-.32.63-.32,0,0,1.14.76,1.79.94,1.07.29,2.21.26,3.31.14,1.18-.13,3.5-.8,3.5-.8.73.43.99.63,2.25.61,1.3-.02,2.81-.45,3.6-2.02.38-.74-.46-2.72-.46-2.72.43-.53.89-1.7.34-2.89.42-.79.77-1.6.19-2.56.64-1.17.58-2.1.2-2.93.55-.92.82-1.92.19-3.18.6-1.06.63-2.13.2-3.19.45-.87.91-1.74.2-3.43.19-.68,1.03-1.39.19-3.8,1-1.12,1.06-2.56.2-3.69,0,0-.08-1.16.29-2.45.37-1.29,1.13-2.91.8-4.58-.26-1.3-1.96-3.66-2.94-5.14-2.14-3.22-1.92-5.76-1.92-5.76h-9.59Z" style="fill: #29576a; stroke: #29576a; stroke-width: .15px;"/>
        <path d="m232.1,151.28s-2.45,2.82-1.86,4.43c.09.26.23.52.38.79,1.39.62,3.14,1.5,4.05,2.38.95.91,1.05,2.49,1.99,3.41,1.2,1.17,2.83,1.54,4.09,1.64-.18-1-.57-2.13-.73-3.24-.55-3.81.75-5.35.75-5.35l-8.67-4.06Zm9.12,3.24s.42,1.52,1.11,2.84c1.48.82,4.04,2.3,5.45,3.4.97.76,2.33,2.33,3.44,2.86,1.1.53,2.68.69,4.06.73-.63-1.3-1.8-2.94-2.55-4.08-2.14-3.22-1.92-5.76-1.92-5.76h-9.59Z" style="fill: #29576a; stroke: #29576a; stroke-width: .15px;"/>
        <path d="m232.1,151.28s-2.45,2.82-1.86,4.43c.84,2.3,4.47,5.13,3.92,8.74-1.58,10.46-9.58,21.39-13.82,30.61-.79,1.71-1.75,1.71-3.04,1.94-.95.17-1.82,1.05-2.51,1.63-.87-.69-2.63-.8-2.83.35-.65-.37-1.73-.29-2.3.73,0,0-1.07-.11-1.54.12-.64.31-1.24.85-1.32,1.55-.07.59.28,1.03.28,1.03,0,0,.38-1.02,1.12-1.14.23-.04.42.26.66.24.23-.01.63-.32.63-.32,0,0,1.14.76,1.79.94,1.07.29,2.21.26,3.31.14,1.18-.13,3.5-.8,3.5-.8.73.43.99.63,2.25.61,1.3-.02,2.81-.45,3.6-2.02.38-.74-.53-3.57-.53-3.57.79-1.15,1.97-2.02,1.99-3.33.72-.54,1.38-1.11,1.28-2.22,1.08-.78,1.42-1.66,1.45-2.57.9-.6,1.58-1.39,1.55-2.79,1-.71,1.47-1.65,1.54-2.79.78-.6,1.57-1.19,1.66-3.02.47-.53,1.55-.83,1.83-3.36,1.38-.59,2.06-1.86,1.76-3.24,0,0,.57-2.31,1.47-3.32s2.43-2.69,2.85-4.34c.33-1.29-.5-3.06-.75-4.81-.55-3.81.75-5.35.75-5.35l-8.67-4.06Zm9.12,3.24s.82,3.03,2.05,4.23c1.75,1.72,4.57,4.7,5.5,6.79,2.46,5.6,1.92,20.75,1.32,28.08-.22,2.68-.22,1.84-.68,3.24-.39,1.18-1.28,1.21-2.57,1.44-.95.17-1.95.52-2.65,1.1-.87-.69-2.63-.8-2.83.35-.65-.37-1.73-.29-2.3.73,0,0-1.07-.11-1.54.12-.64.31-1.24.85-1.32,1.55-.07.59.28,1.03.28,1.03,0,0,.38-1.02,1.12-1.14.23-.04.42.26.66.24.23-.01.63-.32.63-.32,0,0,1.14.76,1.79.94,1.07.29,2.21.26,3.31.14,1.18-.13,3.5-.8,3.5-.8.73.43.99.63,2.25.61,1.3-.02,2.81-.45,3.6-2.02.38-.74-.46-2.72-.46-2.72.43-.53.89-1.7.34-2.89.42-.79.77-1.6.19-2.56.64-1.17.58-2.1.2-2.93.55-.92.82-1.92.19-3.18.6-1.06.63-2.13.2-3.19.45-.87.91-1.74.2-3.43.19-.68,1.03-1.39.19-3.8,1-1.12,1.06-2.56.2-3.69,0,0-.08-1.16.29-2.45.37-1.29,1.13-2.91.8-4.58-.26-1.3-1.96-3.66-2.94-5.14-2.14-3.22-1.92-5.76-1.92-5.76h-9.59Z" style="fill: #29576a; stroke: #29576a; stroke-width: .15px;"/>
        <path d="m274.62,155.93c-2.29-2.17-1.39-6.24-2.34-8.7-2.07-5.32-6.17-9.36-11.82-12.65-5.98-3.48-12.02-6.61-22.22-6.75-10.47-.15-10.75,4.42-15.25,2.27-3.49-1.67-3.03-7.28-.94-14.17,2.09-6.89,6.01-15.26,6.12-21.07.05-2.5-.39-7.34-5.79-7.99-3.61-.43-5.48,1.89-4.78,3.04-2.72.63-7.11,2.57-6.7,2.97.75.72,5.09.02,7.43.57.86.2,1.45.48,1.85.89.53.56.74,1.26.81,1.89.74,6.46-2.96,11.7-6.72,17.66-3.75,5.97-7.11,12.65-7,22.05.17,14.54,11.93,19.66,22.96,21.79.62.12,1.31.41,1.79.79,1.03.84,2.17.97,3.27,1.86l-.33-1.47c.73.42,1.26.97,1.74,1.66.09-.68-.08-1.24-.35-1.86l1.05.83v-.76c.78.41,1.35.97,1.88,1.66.12-.9-.06-1.65-.42-2.48,1.74,1.58,2.5.81,3.7,3.72l.35-1.5.83,1.16c.37-.83.37-1.52.14-2.39.94.82,1.72,1.03,2.97.89-.92-.49-1.36-.75-1.17-1.85.93,1.02,1.75,1.59,3.08,1.97-.54-.61-.89-1.44-.59-1.97.73,1.62,2.59.93,3.04,2.53.26-.76.2-1.37-.07-2.12,2.17,1.5,2.29,2.19,3.87,1.98l-.76-1.37c1.35.25,2.56.34,2.49,1.85.63-.69.84-.88.62-1.78.83.69,1.11.82,1.04,1.92.41-.71.82-.96.76-1.78.71.52,1.04.81,1.45,1.58.13-.94.08-1.35-.35-2.19,1.38.33,2.22.77,2.97,1.98l.55-2.05c.32,1.27,1.3,1.48,2.55,1.64-.67-.78-.81-1.23-.35-2.19,1.03.86,1.51,1.69,1.73,3.01l1.31-1.91c.55.73.84,1.28.76,2.19.74-.6,1.03-1.01.9-1.98,1.25,1.72,1.59.86,2.28,2.12.14-.76.51-.97.13-1.64,1.74.83.29,1.29,2.14,1.92-.63-.7-.18-1.35-.07-2.26.59.77.93,1.35.83,2.33,1.95-1.74.06-4.44-1.34-5.81h0Z" style="fill: #29576a; stroke: #29576a; stroke-width: .15px;"/>
        <path d="m103.45,219.98h-6.12c-.24.56-.49,1.11-.73,1.67-.24.56-.36,1.02-.36,1.39,0,.48.19.83.59,1.07.23.14.8.24,1.7.3v.47h-5.76v-.47c.63-.09,1.14-.35,1.54-.77.39-.42.91-1.28,1.48-2.59,2.03-4.58,4.17-9.15,6.2-13.73h.24c2.04,4.71,4.21,9.4,6.25,14.11.59,1.33,1.09,2.18,1.47,2.53.29.26.71.42,1.23.45v.47h-8.39v-.47h.35c.68,0,1.15-.08,1.42-.28.19-.14.29-.33.29-.58,0-.15-.03-.3-.08-.47-.02-.08-.14-.4-.39-.95-.3-.72-.62-1.43-.92-2.14h0Zm-.44-.94c-.85-1.98-1.74-3.95-2.58-5.93-.87,1.98-1.79,3.95-2.66,5.93h5.24Z" style="fill: #29576a; fill-rule: evenodd; stroke: #29576a; stroke-width: .15px;"/>
        <path d="m112.08,207.67h8.95v.47h-.45c-.68,0-1.14.07-1.38.21-.25.14-.44.34-.54.58-.11.24-.17.86-.17,1.84v8.43c0,1.54.12,2.56.36,3.06.23.5.62.91,1.15,1.24.53.34,1.21.5,2.03.5.93,0,1.75-.21,2.4-.63.65-.42,1.16-.99,1.48-1.73.31-.74.49-2.02.49-3.84v-7.02c0-.77-.08-1.32-.24-1.65-.16-.33-.37-.56-.61-.68-.38-.19-.92-.29-1.62-.29v-.47h6v.47h-.36c-.49,0-.9.1-1.22.29-.31.19-.56.48-.7.88-.11.26-.16.76-.16,1.46v6.54c0,2.02-.13,3.47-.4,4.38-.26.9-.94,1.72-1.97,2.47-1.02.75-2.46,1.13-4.26,1.13-1.49,0-2.66-.2-3.48-.6-1.1-.55-1.91-1.23-2.37-2.08-.45-.85-.68-1.98-.68-3.42v-8.43c0-.99-.05-1.61-.17-1.85-.11-.24-.31-.43-.58-.57-.26-.14-.78-.22-1.51-.21v-.47Z" style="fill: #29576a; fill-rule: evenodd; stroke: #29576a; stroke-width: .15px;"/>
        <path d="m142.67,207.28c.05,1.91.1,3.82.14,5.73h-.52c-.24-1.43-.87-2.59-1.81-3.47-.96-.88-2.02-1.31-3.15-1.31-.87,0-1.57.23-2.05.69-.51.47-.77,1-.77,1.6,0,.38.09.72.27,1.01.24.4.65.78,1.19,1.18.39.28,1.34.76,2.78,1.49,2.02,1,3.41,1.92,4.1,2.8.69.88,1.05,1.89,1.05,3.02,0,1.43-.58,2.67-1.69,3.71-1.13,1.05-2.57,1.56-4.31,1.56-.55,0-1.07-.05-1.55-.16-.48-.12-1.1-.31-1.83-.62-.4-.17-.74-.25-1.01-.25-.22,0-.46.08-.7.25-.24.17-.45.43-.6.77h-.47v-6.5h.47c.37,1.83,1.12,3.22,2.17,4.18,1.05.97,2.22,1.44,3.46,1.44.95,0,1.72-.25,2.29-.77.56-.53.85-1.12.85-1.8,0-.41-.11-.8-.32-1.18-.21-.38-.56-.75-.99-1.09-.45-.35-1.24-.78-2.36-1.33-1.56-.78-2.72-1.42-3.4-1.96-.68-.55-1.22-1.14-1.59-1.81-.36-.68-.56-1.41-.56-2.21,0-1.37.53-2.53,1.52-3.5,1-.97,2.29-1.44,3.83-1.44.57,0,1.12.06,1.64.2.39.1.9.29,1.47.56.57.28.97.42,1.2.42.22,0,.39-.06.52-.2.12-.14.24-.46.36-.98h.38Z" style="fill: #29576a; fill-rule: evenodd; stroke: #29576a; stroke-width: .15px;"/>
        <path d="m161.45,207.67v4.66h-.46c-.26-1.08-.58-1.85-.91-2.32-.33-.47-.8-.83-1.37-1.11-.32-.16-.89-.23-1.7-.23h-1.29v13.27c0,.88.05,1.43.15,1.65.09.22.28.4.57.57.28.17.67.25,1.16.25h.58v.47h-9.08v-.47h.58c.5,0,.91-.08,1.21-.27.22-.11.4-.31.52-.61.09-.2.14-.74.14-1.6v-13.27h-1.25c-1.16,0-2.03.24-2.54.74-.73.69-1.22,1.66-1.41,2.93h-.49v-4.66h15.57Z" style="fill: #29576a; fill-rule: evenodd; stroke: #29576a; stroke-width: .15px;"/>
        <path d="m169.35,217.03v4.82c0,.92.07,1.51.18,1.75.11.24.31.44.6.58.29.14.83.22,1.62.22v.47h-8.87v-.47c.81,0,1.35-.07,1.64-.23.28-.14.49-.33.6-.57.11-.24.17-.83.17-1.75v-11.17c0-.92-.05-1.52-.17-1.76-.11-.24-.32-.43-.61-.57-.29-.14-.83-.22-1.62-.22v-.47h8.06c2.1,0,3.63.13,4.6.43.97.3,1.77.81,2.38,1.59.6.78.92,1.69.92,2.73,0,1.27-.47,2.32-1.38,3.15-.58.52-1.41.91-2.46,1.18,1.36,1.95,2.8,3.88,4.16,5.82.54.75.94,1.22,1.16,1.41.34.27.75.41,1.22.43v.47h-5.46c-1.83-2.62-3.75-5.22-5.59-7.84h-1.14,0Zm0-8.44v7.53h.73c1.19,0,2.08-.11,2.66-.33.59-.22,1.06-.59,1.4-1.17.32-.56.5-1.29.5-2.19,0-1.31-.32-2.28-.92-2.91-.62-.63-1.62-.94-3-.94h-1.36Z" style="fill: #29576a; fill-rule: evenodd; stroke: #29576a; stroke-width: .15px;"/>
        <path d="m192.2,219.98h-6.12c-.24.56-.49,1.11-.73,1.67-.24.56-.36,1.02-.36,1.39,0,.48.19.83.59,1.07.23.14.79.24,1.7.3v.47h-5.76v-.47c.63-.09,1.14-.35,1.53-.77.39-.42.91-1.28,1.48-2.59,2.03-4.58,4.17-9.15,6.21-13.73h.24c2.05,4.71,4.21,9.4,6.25,14.11.59,1.33,1.09,2.18,1.47,2.53.29.26.7.42,1.22.45v.47h-8.38v-.47h.34c.68,0,1.15-.08,1.42-.28.19-.14.28-.33.28-.58,0-.15-.02-.3-.08-.47-.02-.08-.14-.4-.38-.95-.3-.72-.62-1.43-.92-2.14h0Zm-.43-.94c-.85-1.98-1.74-3.95-2.58-5.93-.87,1.98-1.79,3.95-2.66,5.93h5.24Z" style="fill: #29576a; fill-rule: evenodd; stroke: #29576a; stroke-width: .15px;"/>
        <path d="m216.74,218.84c-.21,2.01-.44,4.03-.65,6.04h-15.39v-.47h.58c.5,0,.91-.08,1.21-.27.22-.11.4-.31.51-.61.09-.2.14-.74.14-1.6v-11.32c0-.88-.05-1.43-.14-1.65-.09-.22-.29-.42-.56-.59-.29-.16-.68-.24-1.16-.24h-.58v-.47h9.24v.47h-.75c-.5,0-.91.09-1.21.27-.22.11-.4.32-.52.61-.09.21-.14.74-.14,1.6v10.96c0,.88.06,1.43.16,1.68.1.24.31.43.6.55.22.08.73.11,1.55.11h1.45c.92,0,1.69-.16,2.3-.48.61-.32,1.16-.82,1.6-1.52.44-.7.87-1.71,1.27-3.07h.52Z" style="fill: #29576a; fill-rule: evenodd; stroke: #29576a; stroke-width: .15px;"/>
        <path d="m227.27,224.4v.47h-9.06v-.47h.58c.5,0,.91-.08,1.21-.27.22-.11.4-.31.51-.61.09-.2.14-.74.14-1.6v-11.32c0-.88-.06-1.43-.14-1.65-.09-.22-.29-.42-.56-.59-.29-.16-.68-.24-1.16-.24h-.58v-.47h9.06v.47h-.58c-.5,0-.91.09-1.21.27-.22.11-.39.32-.52.61-.09.21-.14.74-.14,1.6v11.32c0,.88.06,1.43.16,1.65.09.22.28.4.57.57.28.17.66.25,1.15.25h.58Z" style="fill: #29576a; fill-rule: evenodd; stroke: #29576a; stroke-width: .15px;"/>
        <path d="m238.76,219.98h-6.13c-.24.56-.49,1.11-.73,1.67-.24.56-.36,1.02-.36,1.39,0,.48.2.83.59,1.07.23.14.79.24,1.7.3v.47h-5.76v-.47c.63-.09,1.14-.35,1.53-.77.39-.42.91-1.28,1.48-2.59,2.03-4.58,4.17-9.15,6.21-13.73h.24c2.05,4.71,4.21,9.4,6.25,14.11.59,1.33,1.09,2.18,1.47,2.53.29.26.7.42,1.22.45v.47h-8.38v-.47h.35c.67,0,1.15-.08,1.42-.28.19-.14.28-.33.28-.58,0-.15-.03-.3-.08-.47-.02-.08-.14-.4-.38-.95-.3-.72-.62-1.43-.92-2.14h0Zm-.44-.94c-.84-1.98-1.74-3.95-2.58-5.93-.87,1.98-1.79,3.95-2.66,5.93h5.24Z" style="fill: #29576a; fill-rule: evenodd; stroke: #29576a; stroke-width: .15px;"/>
        <path d="m185.5,241.01c-1.64-5.01,6.21-10.87,9.67-11.32-.25,7.25-6.25,11.88-10.22,12.15" style="fill: #29576a; fill-rule: evenodd; stroke: #29576a; stroke-width: .15px;"/>
        <path d="m195.78,240.85c-1.64-5.01,6.21-10.87,9.67-11.32-.25,7.25-6.25,11.88-10.22,12.15" style="fill: #29576a; fill-rule: evenodd; stroke: #29576a; stroke-width: .15px;"/>
        <path d="m206.72,240.5c-1.64-5.01,6.21-10.87,9.67-11.32-.25,7.25-6.25,11.88-10.22,12.15" style="fill: #29576a; fill-rule: evenodd; stroke: #29576a; stroke-width: .15px;"/>
        <path d="m217.69,241.14c-1.64-5.01,6.21-10.87,9.67-11.32-.25,7.25-6.25,11.88-10.22,12.15" style="fill: #29576a; fill-rule: evenodd; stroke: #29576a; stroke-width: .15px;"/>
        <path d="m228.93,240.88c-2.13-4.52,4.56-10.97,7.75-11.8.62,6.85-4.48,11.92-8.18,12.64" style="fill: #29576a; fill-rule: evenodd; stroke: #29576a; stroke-width: .15px;"/>
        <path d="m239.53,240.42c-2.86-3.85,2.21-11.17,5.05-12.56,1.88,6.32-1.95,12.05-5.29,13.44" style="fill: #29576a; fill-rule: evenodd; stroke: #29576a; stroke-width: .15px;"/>
        <path d="m250.7,236.57c-2.89-3.31,1.23-10.37,3.73-11.84,2.17,5.64-.93,11.16-3.88,12.66" style="fill: #29576a; fill-rule: evenodd; stroke: #29576a; stroke-width: .15px;"/>
        <path d="m259.48,232.61c-3.37-2.82-.4-10.44,1.85-12.28,3.02,5.24.81,11.16-1.87,13.11" style="fill: #29576a; fill-rule: evenodd; stroke: #29576a; stroke-width: .15px;"/>
        <path d="m268.05,227.5c-3.1-2.6-.37-9.61,1.7-11.3,2.78,4.82.75,10.28-1.72,12.07" style="fill: #29576a; fill-rule: evenodd; stroke: #29576a; stroke-width: .15px;"/>
        <path d="m277.52,220.34c-3.1-2.6-.37-9.61,1.7-11.3,2.78,4.82.75,10.28-1.72,12.07" style="fill: #29576a; fill-rule: evenodd; stroke: #29576a; stroke-width: .15px;"/>
        <path d="m277.52,220.34c1.89-3.58,9.32-2.37,11.41-.7-4.13,3.73-9.89,2.88-12.16.84" style="fill: #29576a; fill-rule: evenodd; stroke: #29576a; stroke-width: .15px;"/>
        <path d="m268.03,228.25c1.89-3.58,9.32-2.37,11.41-.7-4.13,3.73-9.89,2.88-12.16.84" style="fill: #29576a; fill-rule: evenodd; stroke: #29576a; stroke-width: .15px;"/>
        <path d="m260.22,233.56c2.97-2.74,9.58.86,10.99,3.12-5.14,2.14-10.29-.57-11.75-3.25" style="fill: #29576a; fill-rule: evenodd; stroke: #29576a; stroke-width: .15px;"/>
        <path d="m251.26,237.81c.6,4.35,8.63,5.88,11.38,4.96-2.83-5.34-9.02-6.62-12.1-5.38" style="fill: #29576a; fill-rule: evenodd; stroke: #29576a; stroke-width: .15px;"/>
        <path d="m239.92,241.83c-.16,4.39,7.47,7.3,10.34,6.87-1.86-5.75-7.73-8.09-10.97-7.4" style="fill: #29576a; fill-rule: evenodd; stroke: #29576a; stroke-width: .15px;"/>
        <path d="m229.94,243.62c-.16,4.39,7.47,7.3,10.34,6.87-1.86-5.75-7.73-8.09-10.97-7.4" style="fill: #29576a; fill-rule: evenodd; stroke: #29576a; stroke-width: .15px;"/>
        <path d="m218.57,244.32c5.01-1.64,10.87,6.21,11.32,9.67-7.25-.25-11.88-6.25-12.15-10.22" style="fill: #29576a; fill-rule: evenodd; stroke: #29576a; stroke-width: .15px;"/>
        <path d="m206.97,244.49c5.21-.79,9.7,7.92,9.58,11.39-7.11-1.44-10.69-8.12-10.31-12.08" style="fill: #29576a; fill-rule: evenodd; stroke: #29576a; stroke-width: .15px;"/>
        <path d="m195.84,244.16c5.21-.79,9.7,7.92,9.58,11.39-7.11-1.44-10.69-8.12-10.31-12.08" style="fill: #29576a; fill-rule: evenodd; stroke: #29576a; stroke-width: .15px;"/>
        <path d="m283.39,214.1s0,0,0,0c-2.34,2.52-4.79,4.78-7.34,6.82-32.85,28.16-58.89,18.21-87.32,20.29-2.5.14-21.76-.52-23.54.53-.16.09.36.2,1.26.32-.51.07-.88.16-1.06.26-.77.45,13.88,1.22,14.41,2.51,19.99-4.3,69.2,11.97,101.32-27.78,0,0,0,0,0,0,.77-.95,1.53-1.94,2.28-2.95h0Z" style="fill: #29576a; fill-rule: evenodd; stroke: #29576a; stroke-width: .15px;"/>
        <path d="m153.36,241.01c1.64-5.01-6.21-10.87-9.67-11.32.25,7.25,6.25,11.88,10.22,12.15" style="fill: #29576a; fill-rule: evenodd; stroke: #29576a; stroke-width: .15px;"/>
        <path d="m142.86,240.73c1.64-5.01-6.21-10.87-9.67-11.32.25,7.25,6.25,11.88,10.22,12.15" style="fill: #29576a; fill-rule: evenodd; stroke: #29576a; stroke-width: .15px;"/>
        <path d="m132.13,240.5c1.64-5.01-6.21-10.87-9.67-11.32.25,7.25,6.25,11.88,10.22,12.15" style="fill: #29576a; fill-rule: evenodd; stroke: #29576a; stroke-width: .15px;"/>
        <path d="m121.43,241.29c1.64-5.01-6.21-10.87-9.67-11.32.25,7.25,6.25,11.88,10.22,12.15" style="fill: #29576a; fill-rule: evenodd; stroke: #29576a; stroke-width: .15px;"/>
        <path d="m109.98,240.99c2.13-4.52-4.56-10.97-7.75-11.8-.62,6.85,4.48,11.92,8.18,12.64" style="fill: #29576a; fill-rule: evenodd; stroke: #29576a; stroke-width: .15px;"/>
        <path d="m99.27,239.15c2.86-3.85-2.21-11.17-5.05-12.56-1.88,6.32,1.95,12.05,5.29,13.44" style="fill: #29576a; fill-rule: evenodd; stroke: #29576a; stroke-width: .15px;"/>
        <path d="m88.15,236.05c2.89-3.31-1.23-10.37-3.73-11.84-2.17,5.64.93,11.16,3.88,12.66" style="fill: #29576a; fill-rule: evenodd; stroke: #29576a; stroke-width: .15px;"/>
        <path d="m79.83,232.12c3.37-2.82.4-10.44-1.85-12.28-3.02,5.24-.81,11.16,1.87,13.11" style="fill: #29576a; fill-rule: evenodd; stroke: #29576a; stroke-width: .15px;"/>
        <path d="m70.99,226.92c3.1-2.6.37-9.61-1.7-11.3-2.78,4.82-.75,10.28,1.72,12.07" style="fill: #29576a; fill-rule: evenodd; stroke: #29576a; stroke-width: .15px;"/>
        <path d="m61.82,220.24c3.1-2.6.37-9.61-1.7-11.3-2.78,4.82-.75,10.28,1.72,12.07" style="fill: #29576a; fill-rule: evenodd; stroke: #29576a; stroke-width: .15px;"/>
        <path d="m61.09,220.86c-1.89-3.58-9.32-2.37-11.41-.7,4.13,3.73,9.89,2.88,12.16.84" style="fill: #29576a; fill-rule: evenodd; stroke: #29576a; stroke-width: .15px;"/>
        <path d="m71.02,229.9c-1.89-3.58-9.32-2.37-11.41-.7,4.13,3.73,9.89,2.88,12.16.84" style="fill: #29576a; fill-rule: evenodd; stroke: #29576a; stroke-width: .15px;"/>
        <path d="m79.05,234.93c-2.97-2.74-9.58.86-10.99,3.12,5.14,2.14,10.29-.57,11.75-3.25" style="fill: #29576a; fill-rule: evenodd; stroke: #29576a; stroke-width: .15px;"/>
        <path d="m87.83,238.69c-.6,4.35-8.63,5.88-11.38,4.96,2.83-5.34,9.02-6.62,12.1-5.38" style="fill: #29576a; fill-rule: evenodd; stroke: #29576a; stroke-width: .15px;"/>
        <path d="m98.99,242.41c.16,4.39-7.47,7.3-10.34,6.87,1.86-5.75,7.73-8.09,10.97-7.4" style="fill: #29576a; fill-rule: evenodd; stroke: #29576a; stroke-width: .15px;"/>
        <path d="m109.23,243.95c.16,4.39-7.47,7.3-10.34,6.87,1.86-5.75,7.73-8.09,10.97-7.4" style="fill: #29576a; fill-rule: evenodd; stroke: #29576a; stroke-width: .15px;"/>
        <path d="m120.97,244.16c-5.01-1.64-10.87,6.21-11.32,9.67,7.25-.25,11.88-6.25,12.15-10.22" style="fill: #29576a; fill-rule: evenodd; stroke: #29576a; stroke-width: .15px;"/>
        <path d="m131.88,244.49c-5.21-.79-9.7,7.92-9.58,11.39,7.11-1.44,10.69-8.12,10.31-12.08" style="fill: #29576a; fill-rule: evenodd; stroke: #29576a; stroke-width: .15px;"/>
        <path d="m142.56,243.98c-5.21-.79-9.7,7.92-9.58,11.39,7.11-1.44,10.69-8.12,10.31-12.08" style="fill: #29576a; fill-rule: evenodd; stroke: #29576a; stroke-width: .15px;"/>
        <path d="m55.41,214.04s.03.03.05.06h0c.25.34.5.67.75,1,.5.66,1.01,1.31,1.53,1.95,0,0,0,0,0,0,32.12,39.75,81.33,23.48,101.32,27.78.53-1.29,15.18-2.06,14.41-2.51-.18-.11-.56-.19-1.06-.26.89-.12,1.41-.23,1.26-.32-1.78-1.05-21.04-.38-23.54-.53-28.44-2.08-54.48,7.87-87.32-20.29-2.55-2.05-5-4.31-7.35-6.83-.04-.05-.05-.06-.05-.05h0Z" style="fill: #29576a; fill-rule: evenodd; stroke: #29576a; stroke-width: .15px;"/>
        <path d="m151.85,245.99c-.68,2.04,3.17,3.35,3.83,2.78l8.12-5.61,8.22-.17,10.69,5.78c2.76.93,3.37-.42,4.03-1.71l-12.91-5.57h-11.1l-10.89,4.5Z" style="fill: #29576a; fill-rule: evenodd; stroke: #29576a; stroke-width: .15px;"/>
        <ellipse cx="160.27" cy="234.89" rx="4.45" ry="4.18" style="fill: #29576a; stroke: #29576a; stroke-width: .15px;"/>
        <ellipse cx="170.81" cy="235.09" rx="4.45" ry="4.18" style="fill: #29576a; stroke: #29576a; stroke-width: .15px;"/>
        <ellipse cx="177.23" cy="233" rx="4.45" ry="4.18" style="fill: #29576a; stroke: #29576a; stroke-width: .15px;"/>
        <circle cx="163.6" cy="252.76" r="4.18" style="fill: #29576a; stroke: #29576a; stroke-width: .15px;"/>
        <circle cx="172.51" cy="249.71" r="4.71" style="fill: #29576a; stroke: #29576a; stroke-width: .15px;"/>
        <path d="m202.24,162.1l-55.88.12" style="fill: none; stroke: #29576a; stroke-miterlimit: 11.34; stroke-width: .87px;"/>
        <text transform="translate(55.05 228.3) scale(1.64 1)" style="fill: #29576a; font-family: ArialMT, Arial; font-size: 18.03px; stroke: #29576a; stroke-width: .15px;"><tspan x="0" y="0"> </tspan></text>
        <text transform="translate(55.05 228.3) scale(1.64 1)" style="fill: none; font-family: ArialMT, Arial; font-size: 18.03px; isolation: isolate; stroke: #29576a;"><tspan x="0" y="0"> </tspan></text>
        <path d="m189.45,134.75l3.1,10.8-7.88-2.89,1.95,3.62-1.95,3.63,7.88-2.9-3.1,10.81,3.62-1.96,3.62,1.96-3.1-10.81,7.88,2.9-1.95-3.63,1.95-3.62-7.88,2.89,3.1-10.8-3.62,1.96-3.62-1.96Z" style="fill: #29576a; stroke: #29576a; stroke-width: .15px;"/>
        <path d="m193.12,148.62l2.1.22.86-.22s.61-.77.66-1.23c.02-.21-.17-.4-.18-.62,0-.11.08-.21.07-.32,0-.19-.02-.4-.13-.56-.09-.12-.28-.28-.43-.31-.43-.1-.58-.11-.95.13-.48-.58-1.26-.51-1.96-.56-.07,0-.14,0-.2,0-.68.05-1.32-.05-1.79.56-.37-.24-.7-.23-1.13-.13-.15.04-.34.19-.43.31-.11.16-.13.37-.14.56,0,.11.08.21.08.32,0,.21-.2.4-.18.62.05.46.66,1.23.66,1.23l.86.22,2.1-.22h.14Z" style="fill: #29576a; stroke: #29576a; stroke-width: .15px;"/>
        <path d="m195.71,143.84c.22-.01.45.02.7.13.59.25.82.82.8,1.36s-.25,1.09-.53,1.52l-.41-.28c.24-.36.43-.85.45-1.26s-.09-.71-.5-.89c-.35-.15-.62-.1-.94.02s-.66.34-1.09.47c-.67.21-1.06.15-1.06.15v-.5s.35.04.91-.13c.35-.11.68-.31,1.06-.46.19-.07.4-.13.62-.14h0Z" style="fill: #29576a; stroke: #29576a; stroke-width: .15px;"/>
        <path d="m190.37,143.84c-.22-.01-.45.02-.7.13-.59.25-.82.82-.8,1.36s.25,1.09.53,1.52l.41-.28c-.24-.36-.43-.85-.45-1.26s.09-.71.5-.89c.35-.15.62-.1.94.02s.66.34,1.09.47c.67.21,1.06.15,1.06.15v-.5s-.35.04-.91-.13c-.35-.11-.68-.31-1.06-.46-.19-.07-.4-.13-.62-.14h0Z" style="fill: #29576a; stroke: #29576a; stroke-width: .15px;"/>
        <path d="m188.68,146.6c0,.15.12.27.27.27s.27-.12.27-.27-.12-.27-.27-.27-.27.12-.27.27Zm-.22-.55c0,.15.12.27.27.27s.27-.12.27-.27-.12-.27-.27-.27-.27.12-.27.27Zm-.12-.54c0,.15.12.27.27.27s.27-.12.27-.27-.12-.27-.27-.27-.27.12-.27.27Zm0-.55c0,.15.12.27.27.27s.27-.12.27-.27-.12-.27-.27-.27-.27.12-.27.27Zm.17-.54c0,.15.12.27.27.27s.27-.12.27-.27-.12-.27-.27-.27-.27.12-.27.27Zm.34-.44c0,.15.12.27.27.27s.27-.12.27-.27-.12-.27-.27-.27-.27.12-.27.27Zm.46-.3c0,.15.12.27.27.27s.27-.12.27-.27-.12-.27-.27-.27-.27.12-.27.27Zm.55-.12c0,.15.12.27.27.27s.27-.12.27-.27-.12-.27-.27-.27-.27.12-.27.27Zm.55.03c0,.15.12.27.27.27s.27-.12.27-.27-.12-.27-.27-.27-.27.12-.27.27Zm.54.17c0,.15.12.27.27.27s.27-.12.27-.27-.12-.27-.27-.27-.27.12-.27.27Zm.51.24c0,.15.12.27.27.27s.27-.12.27-.27-.12-.27-.27-.27-.27.12-.27.27Zm.52.19c0,.15.12.27.27.27s.27-.12.27-.27-.12-.27-.27-.27-.27.12-.27.27Zm5.41,2.38c0,.15-.12.27-.27.27s-.27-.12-.27-.27.12-.27.27-.27.27.12.27.27Zm.22-.55c0,.15-.12.27-.27.27s-.27-.12-.27-.27.12-.27.27-.27.27.12.27.27Zm.12-.54c0,.15-.12.27-.27.27s-.27-.12-.27-.27.12-.27.27-.27.27.12.27.27Zm0-.55c0,.15-.12.27-.27.27s-.27-.12-.27-.27.12-.27.27-.27.27.12.27.27Zm-.17-.54c0,.15-.12.27-.27.27s-.27-.12-.27-.27.12-.27.27-.27.27.12.27.27Zm-.34-.44c0,.15-.12.27-.27.27s-.27-.12-.27-.27.12-.27.27-.27.27.12.27.27Zm-.46-.3c0,.15-.12.27-.27.27s-.27-.12-.27-.27.12-.27.27-.27.27.12.27.27Zm-.55-.12c0,.15-.12.27-.27.27s-.27-.12-.27-.27.12-.27.27-.27.27.12.27.27Zm-.55.03c0,.15-.12.27-.27.27s-.27-.12-.27-.27.12-.27.27-.27.27.12.27.27Zm-.54.17c0,.15-.12.27-.27.27s-.27-.12-.27-.27.12-.27.27-.27.27.12.27.27Zm-.51.24c0,.15-.12.27-.27.27s-.27-.12-.27-.27.12-.27.27-.27.27.12.27.27Zm-.52.19c0,.15-.12.27-.27.27s-.27-.12-.27-.27.12-.27.27-.27.27.12.27.27Z" style="fill: #29576a; stroke: #29576a; stroke-width: .15px;"/>
        <path d="m192.91,142.4c-.05-.21-.24-.38-.43-.55.38-.04.77-.04,1.15,0-.17.18-.42.33-.44.55.22-.1.37-.29.54-.45-.04.32-.01.65,0,.97-.17-.14-.32-.31-.54-.37.07.2.23.36.44.49h-1.17c.19-.13.37-.28.44-.49-.21.07-.36.24-.53.39.03-.33.03-.65,0-.98.16.18.32.38.53.44h0Z" style="fill: #29576a; stroke: #29576a; stroke-width: .15px;"/>
        <circle cx="193.05" cy="142.44" r=".25" style="fill: #29576a; stroke: #29576a; stroke-width: .15px;"/>
        <circle cx="193.05" cy="143.73" r=".69" style="fill: #29576a; stroke: #29576a; stroke-width: .15px;"/>
        <path d="m193.02,142.97c-.06,0-.11.05-.11.11v.46h-.46c-.06,0-.12.05-.12.11v.05c0,.06.05.11.12.11h1.21c.06,0,.11-.05.11-.11v-.05c0-.06-.05-.11-.11-.11h-.46v-.46c0-.06-.05-.11-.11-.11h-.06Z" style="fill: #29576a; stroke: #29576a; stroke-width: .15px;"/>
        <rect x="192.51" y="144.46" width="1.08" height="1.83" rx=".24" ry=".24" style="fill: #29576a; stroke: #29576a; stroke-width: .15px;"/>
        <path d="m192.59,144.37h0c.08,0,.15.08.15.19v1.59c0,.1-.07.19-.15.19h0c-.08,0-.15-.08-.15-.19v-1.59c0-.1.07-.19.15-.19Z" style="fill: #29576a; stroke: #29576a; stroke-width: .15px;"/>
        <path d="m193.51,144.37h0c.08,0,.15.08.15.19v1.59c0,.1-.07.19-.15.19h0c-.08,0-.15-.08-.15-.19v-1.59c0-.1.07-.19.15-.19Z" style="fill: #29576a; stroke: #29576a; stroke-width: .15px;"/>
        <circle cx="193.05" cy="144.47" r=".28" style="fill: #29576a; stroke: #29576a; stroke-width: .15px;"/>
        <circle cx="193.05" cy="145" r=".28" style="fill: #29576a; stroke: #29576a; stroke-width: .15px;"/>
        <circle cx="193.05" cy="145.52" r=".28" style="fill: #29576a; stroke: #29576a; stroke-width: .15px;"/>
        <circle cx="193.05" cy="146.05" r=".28" style="fill: #29576a; stroke: #29576a; stroke-width: .15px;"/>
        <path d="m189.59,147.97c.8.64,1.4.69,1.72-.11.57.36,1.15.44,1.72-.11.57.58,1.15.53,1.72.11.21.84.8.84,1.72.11l-.4,1.88-6.07.02-.42-1.9Z" style="fill: #29576a; stroke: #29576a; stroke-width: .15px;"/>
        <rect x="192.55" y="148.47" width=".96" height=".52" rx=".17" ry=".17" style="fill: #29576a; stroke: #29576a; stroke-width: .15px;"/>
        <ellipse cx="191.45" cy="148.86" rx=".46" ry=".26" transform="translate(-13.33 18.95) rotate(-5.48)" style="fill: #29576a; stroke: #29576a; stroke-width: .15px;"/>
        <path d="m189.92,149.28l.47-.33-.71-.25s-.11.1-.13.18c-.03.12-.03.19.05.29.07.08.32.11.32.11h0Z" style="fill: #29576a; stroke: #29576a; stroke-width: .15px;"/>
        <ellipse cx="194.62" cy="148.86" rx=".26" ry=".46" transform="translate(27.87 328.39) rotate(-84.52)" style="fill: #29576a; stroke: #29576a; stroke-width: .15px;"/>
        <path d="m196.15,149.28l-.47-.33.71-.25s.11.1.13.18c.03.12.03.19-.05.29-.07.08-.32.11-.32.11h0Z" style="fill: #29576a; stroke: #29576a; stroke-width: .15px;"/>
        <path d="m192.29,148.35c-.26.04-.54-.06-.77-.28-.2.36-.54.54-.9.56-.35.02-.71-.12-.96-.42-.08-.19-.15-.37-.22-.51-.14-.27-.42-.78-.42-.78.28-.18.53-.32.86-.34-.14.36-.13.61-.14.87.3-.05.44-.26.6-.41l.19.75c-.3-.13-.5-.06-.7.01,0,0,.12.23.22.31.11.09.23.14.37.17.14.02.29.03.41-.03.26-.12.39-.37.36-.36,0,0,.03-.23-.04-.31-.05-.06-.15-.11-.23-.09-.12.03-.19.29-.19.29,0,0-.12-.22-.15-.34-.03-.11-.07-.23-.01-.33.04-.07.13-.13.22-.14.12-.02.33.08.33.08,0,0-.06-.2-.08-.31,0-.05,0-.13.03-.18.05-.12.13-.18.19-.25.07.07.16.09.24.19.04.04.07.11.07.17.01.11,0,.32,0,.32,0,0,.18-.14.3-.15.09,0,.19.02.25.09.08.08.07.21.07.33,0,.13-.06.37-.06.37,0,0-.13-.24-.26-.24-.08,0-.17.07-.2.14-.04.09.04.31.04.31.51.37,1.04,0,1.15-.38v-.14c-.21.03-.31.06-.52.29l-.07-.93c.21.17.38.24.59.2-.02-.27-.17-.39-.41-.62.39-.1.8-.12,1.17,0-.24.24-.39.35-.41.62.21.03.38-.03.59-.2l-.07.93c-.21-.23-.31-.27-.52-.29v.14c.11.37.64.76,1.15.38,0,0,.08-.21.04-.31-.03-.07-.12-.14-.2-.14-.13,0-.26.24-.26.24,0,0-.06-.24-.06-.37,0-.11,0-.24.07-.33.06-.06.16-.09.25-.09.12,0,.3.15.3.15,0,0,0-.21,0-.32,0-.06.04-.12.07-.17.08-.1.17-.12.24-.19.05.07.14.13.19.25.02.05.04.12.03.18-.02.11-.08.31-.08.31,0,0,.21-.1.33-.08.09.02.18.07.22.14.05.1.01.22-.01.33-.03.12-.15.34-.15.34,0,0-.07-.26-.19-.29-.08-.02-.18.03-.23.09-.07.08-.04.31-.04.31-.04-.02.1.24.36.36.12.06.28.05.41.03.14-.02.26-.08.37-.17.09-.08.22-.31.22-.31-.19-.08-.4-.14-.7-.01l.19-.75c.16.15.3.36.6.41,0-.26,0-.51-.14-.87.33,0,.59.17.86.34,0,0-.28.51-.42.78-.07.14-.15.32-.22.51-.25.29-.61.43-.96.42-.35-.02-.7-.2-.9-.56-.23.22-.51.32-.77.28-.26-.04-.52-.21-.74-.53-.23.33-.48.5-.74.53h0Z" style="fill: #29576a; stroke: #29576a; stroke-width: .15px;"/>
        <circle cx="193.04" cy="147.07" r=".29" style="fill: #29576a; stroke: #29576a; stroke-width: .15px;"/>
        <circle cx="189.58" cy="147.67" r=".29" style="fill: #29576a; stroke: #29576a; stroke-width: .15px;"/>
        <circle cx="196.49" cy="147.67" r=".29" style="fill: #29576a; stroke: #29576a; stroke-width: .15px;"/>
        <path d="m191.18,147.58l.46-.07c.1-.01.19.05.2.15h0c.01.1-.05.19-.15.2l-.46.07c-.1.01-.19-.05-.2-.15h0c-.01-.1.05-.19.15-.2Z" style="fill: #29576a; stroke: #29576a; stroke-width: .15px;"/>
        <rect x="194.46" y="147.31" width=".35" height=".82" rx=".18" ry=".18" transform="translate(20.91 319.55) rotate(-81.88)" style="fill: #29576a; stroke: #29576a; stroke-width: .15px;"/>
        <ellipse cx="193.04" cy="150.14" rx="3.23" ry=".58" style="fill: #29576a; stroke: #29576a; stroke-width: .15px;"/>
        <path d="m189.97,150.27c2.12-.43,4.17-.39,6.17,0,.34.11.42-.53.09-.68-2.09-.58-5.79-.25-6.38,0-.18-.03-.42.66.12.68h0Z" style="fill: #29576a; stroke: #29576a; stroke-width: .15px;"/>
        <path d="m192.82,149.44c-.1,0-.24.03-.24.03l.26.06s-.08.02-.14.04c-.04.01-.15.06-.15.06h.3s-.08.04-.12.07c-.03.02-.06.08-.06.08,0,0,.27-.1.41-.13.15-.03.44-.02.44-.02l-.17-.08s-.16-.02-.3-.06c-.08-.02-.16-.06-.24-.06h0Zm-1.3.05c-.1,0-.24.06-.24.06l.27.03s-.07.03-.13.05c-.04.02-.15.08-.15.08l.31-.03s-.08.05-.12.08c-.02.03-.05.09-.05.09,0,0,.26-.14.4-.18.14-.04.43-.07.43-.07l-.17-.06s-.17,0-.31-.02c-.08-.01-.18-.05-.25-.04h0Zm2.59-.02c-.1,0-.24.02-.24.02l.26.08s-.08,0-.14.02c-.04.01-.16.06-.16.06l.31.02s-.09.03-.13.06c-.03.02-.07.08-.07.08,0,0,.28-.09.42-.11.15-.02.45,0,.45,0l-.17-.09s-.16-.03-.3-.07c-.08-.03-.16-.08-.24-.08h0Zm-3.74.19s-.09,0-.13.01c-.1.02-.22.08-.22.08h.27s-.06.03-.12.06c-.04.02-.14.11-.14.11l.3-.06s-.08.06-.11.09c-.02.03-.04.09-.04.09,0,0,.24-.16.37-.22.14-.06.43-.13.43-.13l-.18-.03s-.16,0-.31,0c-.04,0-.09,0-.14-.01h0Zm4.86-.08s-.08.01-.08.01l.25.11s-.09,0-.15.01c-.04,0-.17.05-.17.05l.31.04s-.1.03-.14.05c-.03.02-.07.07-.07.07,0,0,.29-.06.43-.06.15,0,.44.04.44.04l-.15-.11s-.16-.05-.28-.11c-.07-.03-.16-.09-.23-.11-.05,0-.11-.01-.16-.01h0Z" style="fill: #29576a; stroke: #29576a; stroke-width: .15px;"/>
        <path d="m174.41,138.79l2.1.22.86-.22s.61-.77.66-1.23c.02-.21-.17-.4-.18-.62,0-.11.08-.21.07-.32,0-.19-.02-.4-.13-.56-.09-.12-.28-.28-.43-.31-.43-.1-.58-.11-.95.13-.48-.58-1.26-.51-1.96-.56-.07,0-.14,0-.2,0-.68.05-1.32-.05-1.79.56-.37-.24-.7-.23-1.13-.13-.15.04-.34.19-.43.31-.11.16-.13.37-.14.56,0,.11.08.21.08.32,0,.21-.2.4-.18.62.05.46.66,1.23.66,1.23l.86.22,2.1-.22h.14Z" style="fill: #29576a; stroke: #29576a; stroke-width: .15px;"/>
        <path d="m177,134.01c.22-.01.45.02.7.13.59.25.82.82.8,1.36s-.25,1.09-.53,1.52l-.41-.28c.24-.36.43-.85.45-1.26s-.09-.71-.5-.89c-.35-.15-.62-.1-.94.02s-.66.34-1.09.47c-.67.21-1.06.15-1.06.15v-.5s.35.04.91-.13c.35-.11.68-.31,1.06-.46.19-.07.4-.13.62-.14h0Z" style="fill: #29576a; stroke: #29576a; stroke-width: .15px;"/>
        <path d="m171.66,134.01c-.22-.01-.45.02-.7.13-.59.25-.82.82-.8,1.36s.25,1.09.53,1.52l.41-.28c-.24-.36-.43-.85-.45-1.26s.09-.71.5-.89c.35-.15.62-.1.94.02s.66.34,1.09.47c.67.21,1.06.15,1.06.15v-.5s-.35.04-.91-.13c-.35-.11-.68-.31-1.06-.46-.19-.07-.4-.13-.62-.14h0Z" style="fill: #29576a; stroke: #29576a; stroke-width: .15px;"/>
        <path d="m169.97,136.78c0,.15.12.27.27.27s.27-.12.27-.27-.12-.27-.27-.27-.27.12-.27.27Zm-.22-.55c0,.15.12.27.27.27s.27-.12.27-.27-.12-.27-.27-.27-.27.12-.27.27Zm-.12-.54c0,.15.12.27.27.27s.27-.12.27-.27-.12-.27-.27-.27-.27.12-.27.27Zm0-.55c0,.15.12.27.27.27s.27-.12.27-.27-.12-.27-.27-.27-.27.12-.27.27Zm.17-.54c0,.15.12.27.27.27s.27-.12.27-.27-.12-.27-.27-.27-.27.12-.27.27Zm.34-.44c0,.15.12.27.27.27s.27-.12.27-.27-.12-.27-.27-.27-.27.12-.27.27Zm.46-.3c0,.15.12.27.27.27s.27-.12.27-.27-.12-.27-.27-.27-.27.12-.27.27Zm.55-.12c0,.15.12.27.27.27s.27-.12.27-.27-.12-.27-.27-.27-.27.12-.27.27Zm.55.03c0,.15.12.27.27.27s.27-.12.27-.27-.12-.27-.27-.27-.27.12-.27.27Zm.54.17c0,.15.12.27.27.27s.27-.12.27-.27-.12-.27-.27-.27-.27.12-.27.27Zm.51.24c0,.15.12.27.27.27s.27-.12.27-.27-.12-.27-.27-.27-.27.12-.27.27Zm.52.19c0,.15.12.27.27.27s.27-.12.27-.27-.12-.27-.27-.27-.27.12-.27.27Zm5.41,2.38c0,.15-.12.27-.27.27s-.27-.12-.27-.27.12-.27.27-.27.27.12.27.27Zm.22-.55c0,.15-.12.27-.27.27s-.27-.12-.27-.27.12-.27.27-.27.27.12.27.27Zm.12-.54c0,.15-.12.27-.27.27s-.27-.12-.27-.27.12-.27.27-.27.27.12.27.27Zm0-.55c0,.15-.12.27-.27.27s-.27-.12-.27-.27.12-.27.27-.27.27.12.27.27Zm-.17-.54c0,.15-.12.27-.27.27s-.27-.12-.27-.27.12-.27.27-.27.27.12.27.27Zm-.34-.44c0,.15-.12.27-.27.27s-.27-.12-.27-.27.12-.27.27-.27.27.12.27.27Zm-.46-.3c0,.15-.12.27-.27.27s-.27-.12-.27-.27.12-.27.27-.27.27.12.27.27Zm-.55-.12c0,.15-.12.27-.27.27s-.27-.12-.27-.27.12-.27.27-.27.27.12.27.27Zm-.55.03c0,.15-.12.27-.27.27s-.27-.12-.27-.27.12-.27.27-.27.27.12.27.27Zm-.54.17c0,.15-.12.27-.27.27s-.27-.12-.27-.27.12-.27.27-.27.27.12.27.27Zm-.51.24c0,.15-.12.27-.27.27s-.27-.12-.27-.27.12-.27.27-.27.27.12.27.27Zm-.52.19c0,.15-.12.27-.27.27s-.27-.12-.27-.27.12-.27.27-.27.27.12.27.27Z" style="fill: #29576a; stroke: #29576a; stroke-width: .15px;"/>
        <path d="m174.2,132.57c-.05-.21-.24-.38-.43-.55.38-.04.77-.04,1.15,0-.17.18-.42.33-.44.55.22-.1.37-.29.54-.45-.04.32-.01.65,0,.97-.17-.14-.32-.31-.54-.37.07.2.23.36.44.49h-1.17c.19-.13.37-.28.44-.49-.21.07-.36.24-.53.39.03-.33.03-.65,0-.98.16.18.32.38.53.44h0Z" style="fill: #29576a; stroke: #29576a; stroke-width: .15px;"/>
        <circle cx="174.34" cy="132.61" r=".25" style="fill: #29576a; stroke: #29576a; stroke-width: .15px;"/>
        <circle cx="174.34" cy="133.91" r=".69" style="fill: #29576a; stroke: #29576a; stroke-width: .15px;"/>
        <path d="m174.31,133.15c-.06,0-.11.05-.11.11v.46h-.46c-.06,0-.12.05-.12.11v.05c0,.06.05.11.12.11h1.21c.06,0,.11-.05.11-.11v-.05c0-.06-.05-.11-.11-.11h-.46v-.46c0-.06-.05-.11-.11-.11h-.06Z" style="fill: #29576a; stroke: #29576a; stroke-width: .15px;"/>
        <rect x="173.8" y="134.63" width="1.08" height="1.83" rx=".24" ry=".24" style="fill: #29576a; stroke: #29576a; stroke-width: .15px;"/>
        <path d="m173.88,134.54h0c.08,0,.15.08.15.19v1.59c0,.1-.07.19-.15.19h0c-.08,0-.15-.08-.15-.19v-1.59c0-.1.07-.19.15-.19Z" style="fill: #29576a; stroke: #29576a; stroke-width: .15px;"/>
        <path d="m174.81,134.54h0c.08,0,.15.08.15.19v1.59c0,.1-.07.19-.15.19h0c-.08,0-.15-.08-.15-.19v-1.59c0-.1.07-.19.15-.19Z" style="fill: #29576a; stroke: #29576a; stroke-width: .15px;"/>
        <circle cx="174.34" cy="134.64" r=".28" style="fill: #29576a; stroke: #29576a; stroke-width: .15px;"/>
        <circle cx="174.34" cy="135.17" r=".28" style="fill: #29576a; stroke: #29576a; stroke-width: .15px;"/>
        <circle cx="174.34" cy="135.69" r=".28" style="fill: #29576a; stroke: #29576a; stroke-width: .15px;"/>
        <circle cx="174.34" cy="136.23" r=".28" style="fill: #29576a; stroke: #29576a; stroke-width: .15px;"/>
        <path d="m170.88,138.14c.8.64,1.4.69,1.72-.11.57.36,1.15.44,1.72-.11.57.58,1.15.53,1.72.11.21.84.8.84,1.72.11l-.4,1.88-6.07.02-.42-1.9Z" style="fill: #29576a; stroke: #29576a; stroke-width: .15px;"/>
        <rect x="173.85" y="138.64" width=".96" height=".52" rx=".17" ry=".17" style="fill: #29576a; stroke: #29576a; stroke-width: .15px;"/>
        <ellipse cx="172.74" cy="139.03" rx=".46" ry=".26" transform="translate(-12.48 17.12) rotate(-5.48)" style="fill: #29576a; stroke: #29576a; stroke-width: .15px;"/>
        <path d="m171.21,139.46l.47-.33-.71-.25s-.11.1-.13.18c-.03.12-.03.19.05.29.07.08.32.11.32.11h0Z" style="fill: #29576a; stroke: #29576a; stroke-width: .15px;"/>
        <ellipse cx="175.91" cy="139.03" rx=".26" ry=".46" transform="translate(20.73 300.88) rotate(-84.52)" style="fill: #29576a; stroke: #29576a; stroke-width: .15px;"/>
        <path d="m177.44,139.46l-.47-.33.71-.25s.11.1.13.18c.03.12.03.19-.05.29-.07.08-.32.11-.32.11h0Z" style="fill: #29576a; stroke: #29576a; stroke-width: .15px;"/>
        <path d="m173.58,138.52c-.26.04-.54-.06-.77-.28-.2.36-.54.54-.9.56-.35.02-.71-.12-.96-.42-.08-.19-.15-.37-.22-.51-.14-.27-.42-.78-.42-.78.28-.18.53-.32.86-.34-.14.36-.13.61-.14.87.3-.05.44-.26.6-.41l.19.75c-.3-.13-.5-.06-.7.01,0,0,.12.23.22.31.11.09.23.14.37.17.14.02.29.03.41-.03.26-.12.39-.37.36-.36,0,0,.03-.23-.04-.31-.05-.06-.15-.11-.23-.09-.12.03-.19.29-.19.29,0,0-.12-.22-.15-.34-.03-.11-.07-.23-.01-.33.04-.07.13-.13.22-.14.12-.02.33.08.33.08,0,0-.06-.2-.08-.31,0-.05,0-.13.03-.18.05-.12.13-.18.19-.25.07.07.16.09.24.19.04.04.07.11.07.17.01.11,0,.32,0,.32,0,0,.18-.14.3-.15.09,0,.19.02.25.09.08.08.07.21.07.33,0,.13-.06.37-.06.37,0,0-.13-.24-.26-.24-.08,0-.17.07-.2.14-.04.09.04.31.04.31.51.37,1.04,0,1.15-.38v-.14c-.21.03-.31.06-.52.29l-.07-.93c.21.17.38.24.59.2-.02-.27-.17-.39-.41-.62.39-.1.8-.12,1.17,0-.24.24-.39.35-.41.62.21.03.38-.03.59-.2l-.07.93c-.21-.23-.31-.27-.52-.29v.14c.11.37.64.76,1.15.38,0,0,.08-.21.04-.31-.03-.07-.12-.14-.2-.14-.13,0-.26.24-.26.24,0,0-.06-.24-.06-.37,0-.11,0-.24.07-.33.06-.06.16-.09.25-.09.12,0,.3.15.3.15,0,0,0-.21,0-.32,0-.06.04-.12.07-.17.08-.1.17-.12.24-.19.05.07.14.13.19.25.02.05.04.12.03.18-.02.11-.08.31-.08.31,0,0,.21-.1.33-.08.09.02.18.07.22.14.05.1.01.22-.01.33-.03.12-.15.34-.15.34,0,0-.07-.26-.19-.29-.08-.02-.18.03-.23.09-.07.08-.04.31-.04.31-.04-.02.1.24.36.36.12.06.28.05.41.03.14-.02.26-.08.37-.17.09-.08.22-.31.22-.31-.19-.08-.4-.14-.7-.01l.19-.75c.16.15.3.36.6.41,0-.26,0-.51-.14-.87.33,0,.59.17.86.34,0,0-.28.51-.42.78-.07.14-.15.32-.22.51-.25.29-.61.43-.96.42-.35-.02-.7-.2-.9-.56-.23.22-.51.32-.77.28-.26-.04-.52-.21-.74-.53-.23.33-.48.5-.74.53h0Z" style="fill: #29576a; stroke: #29576a; stroke-width: .15px;"/>
        <circle cx="174.33" cy="137.25" r=".29" style="fill: #29576a; stroke: #29576a; stroke-width: .15px;"/>
        <circle cx="170.88" cy="137.85" r=".29" style="fill: #29576a; stroke: #29576a; stroke-width: .15px;"/>
        <circle cx="177.78" cy="137.85" r=".29" style="fill: #29576a; stroke: #29576a; stroke-width: .15px;"/>
        <path d="m172.47,137.75l.46-.07c.1-.01.19.05.2.15h0c.01.1-.05.19-.15.2l-.46.07c-.1.01-.19-.05-.2-.15h0c-.01-.1.05-.19.15-.2Z" style="fill: #29576a; stroke: #29576a; stroke-width: .15px;"/>
        <rect x="175.75" y="137.48" width=".35" height=".82" rx=".18" ry=".18" transform="translate(14.58 292.58) rotate(-81.88)" style="fill: #29576a; stroke: #29576a; stroke-width: .15px;"/>
        <ellipse cx="174.33" cy="140.31" rx="3.23" ry=".58" style="fill: #29576a; stroke: #29576a; stroke-width: .15px;"/>
        <path d="m171.26,140.44c2.12-.43,4.17-.39,6.17,0,.34.11.42-.53.09-.68-2.09-.58-5.79-.25-6.38,0-.18-.03-.42.66.12.68h0Z" style="fill: #29576a; stroke: #29576a; stroke-width: .15px;"/>
        <path d="m174.11,139.61c-.1,0-.24.03-.24.03l.26.06s-.08.02-.14.04c-.04.01-.15.06-.15.06h.3s-.08.04-.12.07c-.03.02-.06.08-.06.08,0,0,.27-.1.41-.13.15-.03.44-.02.44-.02l-.17-.08s-.16-.02-.3-.06c-.08-.02-.16-.06-.24-.06h0Zm-1.3.05c-.1,0-.24.06-.24.06l.27.03s-.07.03-.13.05c-.04.02-.15.08-.15.08l.31-.03s-.08.05-.12.08c-.02.03-.05.09-.05.09,0,0,.26-.14.4-.18.14-.04.43-.07.43-.07l-.17-.06s-.17,0-.31-.02c-.08-.01-.18-.05-.25-.04h0Zm2.59-.02c-.1,0-.24.02-.24.02l.26.08s-.08,0-.14.02c-.04.01-.16.06-.16.06l.31.02s-.09.03-.13.06c-.03.02-.07.08-.07.08,0,0,.28-.09.42-.11.15-.02.45,0,.45,0l-.17-.09s-.16-.03-.3-.07c-.08-.03-.16-.08-.24-.08h0Zm-3.74.19s-.09,0-.13.01c-.1.02-.22.08-.22.08h.27s-.06.03-.12.06c-.04.02-.14.11-.14.11l.3-.06s-.08.06-.11.09c-.02.03-.04.09-.04.09,0,0,.24-.16.37-.22.14-.06.43-.13.43-.13l-.18-.03s-.16,0-.31,0c-.04,0-.09,0-.14-.01h0Zm4.86-.08s-.08.01-.08.01l.25.11s-.09,0-.15.01c-.04,0-.17.05-.17.05l.31.04s-.1.03-.14.05c-.03.02-.07.07-.07.07,0,0,.29-.06.43-.06.15,0,.44.04.44.04l-.15-.11s-.16-.05-.28-.11c-.07-.03-.16-.09-.23-.11-.05,0-.11-.01-.16-.01h0Z" style="fill: #29576a; stroke: #29576a; stroke-width: .15px;"/>
        <path d="m174.35,141.4l-.62,1.58-1.63-.5.91,1.41-1.42.92,1.62.2-.15,1.66,1.29-1.18,1.29,1.18-.15-1.66,1.62-.2-1.42-.92.91-1.41-1.63.5-.62-1.58Zm5.54,4.48l-.5,1.14-1.24-.14.74,1.01-.74,1,1.24-.13.5,1.14.5-1.14,1.24.13-.73-1,.73-1.01-1.24.14-.5-1.14Zm-10.08,1.54l-.61,1.58-1.63-.51.91,1.42-1.42.92,1.61.18-.14,1.66,1.28-1.18,1.29,1.18-.14-1.66,1.61-.18-1.42-.92.91-1.42-1.63.51-.62-1.58Zm8.21,5.03l-.5.97-1.08.15.77.77-.2,1.08.97-.5.97.51-.17-1.08.79-.75-1.09-.17-.47-.98Zm-5.45,1.91l-.63,1.78-1.71-.82.8,1.71-1.77.63,1.77.64-.8,1.7,1.71-.8.63,1.77.63-1.77,1.71.8-.82-1.7,1.78-.64-1.78-.63.82-1.71-1.71.82-.63-1.78Z" style="fill: #29576a; stroke: #29576a; stroke-width: .15px;"/>
        <path d="m146.78,130.75v31.1h18.67v-31.1h-18.67Z" style="fill: none; stroke-width: 0px;"/>
        <path d="m152.82,130.25v13.1h-6.29v5.64h6.29v13.1h5.25v-13.1h6.29v-5.64h-6.29v-13.1h-5.25Z" style="fill: #29576a; stroke: #29576a; stroke-width: .15px;"/>
        <path d="m155.45,132.08l-.5,1.41-1.36-.64.64,1.35-1.41.51,1.41.5-.64,1.35,1.36-.64.5,1.41.5-1.41,1.36.64-.64-1.35,1.41-.5-1.41-.51.64-1.35-1.36.64-.5-1.41Zm-7.09,11.98l-.36,1.14-.96-.52.46,1.1-1.01.41,1.01.4-.46,1.1.96-.52.36,1.14.36-1.14.97.52-.46-1.1,1-.4-1-.41.46-1.1-.97.52-.36-1.14Zm14.17,0l-.36,1.14-.97-.52.46,1.1-1,.41,1,.4-.46,1.1.97-.52.36,1.14.36-1.14.96.52-.46-1.1,1.01-.4-1.01-.41.46-1.1-.96.52-.36-1.14Zm-7.09,10.98l-.5,1.41-1.36-.64.64,1.35-1.41.51,1.41.5-.64,1.35,1.36-.64.5,1.41.5-1.41,1.36.64-.64-1.35,1.41-.5-1.41-.51.64-1.35-1.36.64-.5-1.41Z" style="fill: #29576a; stroke: #29576a; stroke-width: .15px;"/>
        <path d="m150.71,144.62v.27c-.15-.2-.26-.18-.32-.16.23.43-.12.48.15,1.02l-.14.33c.2.13.3,0,.47-.11,0,0,.12.19.16.3.29.99,1.05,1.32,1.63,1.33.14-.03.32-.38.32-.38l-.21-1.16s-.32.55-.96.07c-.24-.18-.3-.74-.63-.94.03-.21.03-.42-.18-.57l-.07.23c-.04-.12-.12-.21-.22-.24h0Zm6.22,1.89c-.3.57.7.72.16,1.15l-.16-.12c0-.21-.03-.31-.26-.43l-.04.23c-.06-.11-.15-.19-.25-.21l.04.27c-.16-.17-.27-.14-.33-.12.29.39-.06.38.29.89l-.09.35c.22.1.3-.04.45-.17.99.14,1.68-.47,1.71-1.34l-.38-.49h-1.13Z" style="fill: #29576a; stroke: #29576a; stroke-width: .15px;"/>
        <path d="m155.85,144.36c-.13.06-.27.14-.38.25-.11.11-.19.28-.17.46.02.2.11.37.26.47.15.09.33.11.51.12.5.01.94-.19,1.36-.39.42-.2.83-.41,1.25-.44.4-.03.67.04.85.14.17.1.25.25.26.4.02.19-.08.44-.46.53-.08.02-.25.03-.41.02-.13-.1-.3-.17-.54-.2-2.21-.28-3.31,1.17-4.38.01,0,0-.9.52-1.22,1.03.17,1.09-1.21,1.04-1.72.81.03-.21.03-.42-.18-.57l-.07.23c-.04-.12-.12-.21-.22-.24v.27c-.15-.19-.26-.18-.32-.16.23.43-.12.48.15,1.02l-.14.33c.2.13.3,0,.47-.11.96.27,2.48.38,2.95-.3,0,0,.33.24.89.08.72-.22,1.24-1.17,1.95-1.43.54-.2,1.08-.07,1.08-.07,0,0,.17.56.36.7.41.29.83.22,1.24.3.49.1.54.24.54.24-.03.21.05.49.26.64l.07-.24c.04.12.12.23.22.25v-.27c.13.19.24.18.31.16-.23-.43.13-.48-.14-1.02l.13-.33c-.2-.13-.29,0-.46.11-.14-.09-.31-.16-.56-.2-.2-.14-.25-.43-.39-.7.08,0,.16-.01.23-.03.53-.13.77-.55.73-.9-.03-.26-.18-.51-.44-.66-.26-.16-.62-.23-1.08-.2-.52.04-.97.27-1.39.47-.42.2-.8.37-1.18.36-.15,0-.26-.03-.32-.07-.06-.04-.09-.07-.1-.2,0-.08.02-.13.08-.2.06-.06.16-.13.26-.17,0,0,.2.23.6.18.19-.03.46-.15.58-.29.19-.21.24-.56-.24-.77.09.31-.11.4-.23.4-.21,0-.29-.19-.6-.13-.22.04-.27.3-.27.3h0Z" style="fill: #29576a; stroke: #29576a; stroke-width: .15px;"/>
        <path d="m153.44,147.28c.1.13.14.25.33.29.1-.23.05-.33.04-.5.13.15.2.11.31.14.05-.39-.01-.48-.11-.73.1.03.16.06.26.01.05-.21-.13-.59-.21-.9.28-.07.23-.37.27-.51-.09-.06-.2-.14-.34-.05.03-.19-.01-.36-.18-.48l-.07.05c-.03-.1-.07-.14-.2-.22-.04.03-.08.02-.13.11-.05-.15-.11-.15-.2-.2-.09.05-.15.05-.2.2-.05-.09-.1-.08-.13-.11-.13.08-.16.12-.2.22l-.07-.05c-.17.12-.21.29-.18.48-.14-.08-.25,0-.34.05.04.14-.01.45.27.51-.08.32-.26.69-.21.9.1.04.16.02.26-.01-.09.24-.15.34-.11.73.11-.03.18.02.31-.14,0,.16-.05.27.04.5.19-.04.23-.16.33-.29.02.23.09.31.24.43.15-.12.22-.2.24-.43h0Z" style="fill: #29576a; stroke: #29576a; stroke-width: .15px;"/>
        <path d="m153.38,146.27c0,.34-.05.55-.22.6-.17-.05-.22-.26-.23-.6l.23-.06.22.06Z" style="fill: #29576a; stroke: #29576a; stroke-width: .15px;"/>
        <path d="m152.68,145.13c-.1.02-.2.08-.24.2.12-.03.24-.08.34-.08.05,0,.09.01.13.03.03.02.04.05.06.09l-.07.38v.04s.03.01.03.01l.19.12.03.02.03-.02.21-.12h.03s-.01-.06-.01-.06l-.07-.38s.03-.07.06-.09c.03-.02.08-.03.13-.03.1,0,.21.04.33.08-.05-.15-.19-.2-.33-.2-.07,0-.14.01-.19.04-.06.03-.1.09-.11.17l.07.38c-.08-.04-.19-.05-.27,0l.07-.38c-.02-.08-.06-.14-.11-.17-.06-.03-.13-.04-.19-.04-.03,0-.07,0-.1,0h.01Zm-.26.55c-.05.07,0,.15.06.21.04.04.12.06.18.08-.01.08,0,.14.03.2.04.06.1.11.17.13.07.03.13.03.19.02.04,0,.08-.04.11-.07.04.03.07.06.11.07.06.01.14,0,.21-.02.07-.03.12-.07.16-.13.03-.05.03-.12.03-.2.07-.02.14-.03.18-.08.06-.06.1-.13.04-.21-.09.17-.25.18-.36.2l.03.07c.02.07.01.13-.01.16-.02.04-.06.06-.1.08-.04.01-.1.02-.14.01-.04,0-.07-.03-.08-.04l-.06-.07-.04.07s-.05.04-.09.04c-.04,0-.09,0-.14-.01-.04-.01-.07-.04-.09-.08-.02-.04-.03-.09-.01-.16v-.07c-.16,0-.31-.07-.36-.2h0Z" style="fill: #29576a; stroke: #29576a; stroke-width: .15px;"/>
        <path d="m152.81,145.25c-.06,0-.17.03-.2.1.03.05.14.06.2.06.04,0,.09-.03.09-.08,0-.04-.03-.08-.09-.08h0Zm.71,0c-.06,0-.09.03-.09.08,0,.05.05.07.09.08.06,0,.17,0,.2-.06-.03-.06-.14-.1-.2-.1h0Z" style="fill: #29576a; stroke: #29576a; stroke-width: .15px;"/>
        <path d="m151.9,179.41h8.3c.26,0,.47.21.47.47h0c0,.26-.21.47-.47.47h-8.3c-.26,0-.47-.21-.47-.47h0c0-.26.21-.47.47-.47Z" style="fill: #29576a; stroke: #29576a; stroke-width: .15px;"/>
        <path d="m152.04,179.4h7.98c.35,0,.59.18.59.44s-.24.51-.59.51h-7.98c-.35,0-.55-.21-.55-.47s.2-.48.55-.48h0Z" style="fill: #29576a; stroke: #29576a; stroke-width: .15px;"/>
        <path d="m154.43,180.35l-.64-.95h-1.29l.64.95h1.29Z" style="fill: #29576a; stroke: #29576a; stroke-width: .15px;"/>
        <path d="m155.73,180.35l-.64-.95h1.29l.64.95h-1.29Z" style="fill: #29576a; stroke: #29576a; stroke-width: .15px;"/>
        <path d="m158.31,180.35l-.64-.95h1.29l.64.95h-1.29Z" style="fill: #29576a; stroke: #29576a; stroke-width: .15px;"/>
        <path d="m155.16,177.54l-1.14,1.54c-.18.08-.22.06-.5.04-.43-.05-.67.01-.79.14-.15.14-.09.48.3.49-.24-.46.49-.37.88-.35.07.08.12.22.02.35.17-.03.41.06.25-.5l1.38-1.5-.4-.21h0Zm1.77,0l-.41.21,1.38,1.5c-.16.55.08.46.25.5-.1-.13-.05-.26.02-.35.39-.02,1.13-.11.88.35.39-.02.45-.35.3-.49-.12-.13-.35-.19-.78-.14-.28.02-.33.04-.51-.04l-1.13-1.54h0Z" style="fill: #29576a; stroke: #29576a; stroke-width: .15px;"/>
        <path d="m155.1,171.99s-1.14.04-1.5-.16c-.5-.27-.92-.74-1.14-1.26-.72-1.74-.33-5.16-.33-5.16,0-.22.04-.72-.11-.79-.17.02-.16.31-.23.47-.16-.55-.26-1.35-.47-1.38-.26.09-.22,1.09-.3,1.45-.15-.31-.28-.88-.52-.9-.16.12,0,.81.02,1.19-.2-.22-.43-.75-.67-.73-.14.15.09.79.28,1.22-.21-.12-.54-.6-.77-.53-.1.18.4.76.51,1.07-.24-.13-.69-.49-.89-.36-.05.2.58.66.73.89-.33-.06-.85-.31-1.01-.14,0,.21.68.55.89.73-.35-.01-.89-.22-1.04-.04.01.2.74.44.97.63-.33,0-.89-.14-1.02.06.04.2.84.42.99.53-.37.05-.94-.05-1.05.16.05.2.83.28,1.05.44-.36.04-.93-.05-1.04.16.05.2.83.3,1.05.45-.35.06-.92-.04-1.03.18.05.2.79.24,1.03.43-.36.07-.94.04-1.03.26.07.19.88.21,1.06.31-.37.1-.95.12-1.01.35.09.18.77.03,1.08.19-.36.11-.94.18-.99.41.11.18.78.04,1.05.14-.4.15-.97.24-1.01.47.11.17.6.03,1.06.1-.41.23-.95.28-.99.52.12.17.79.09,1.12.03-.1.17-.88.32-.9.56.13.16.79.04,1.11-.03-.09.22-.85.41-.85.66.14.15.79-.03,1.11-.14-.17.25-.78.53-.74.76.17.12.78-.15,1.07-.33-.07.27-.67.64-.58.87.19.09.73-.3,1.01-.54-.02.33-.49.77-.36.97.2.05.66-.45.9-.76.04.28-.39.79-.24.97.2.03.51-.35.71-.65-.01.35-.15.73.05.88.27-.02.36-.42.61-.8.03.34-.06.72.15.84.2-.05.36-.22.45-.71.08.2.03.29.25.39.19-.06.21-.41.32-.89.04.13.08.31.24.41.19-.06.24-.53.31-.94.03.08.1.26.23.36.19-.06.33-.72.36-1.07" style="fill: #29576a; stroke: #29576a; stroke-width: .15px;"/>
        <path d="m151.99,167.81c-.58.32-.86.82-.97,1.35-.12.57-.17,1.27.15,1.89.04.07.14.22.19.15.12-.15.14-.4.2-.54.14-.33.32-.55.65-.71-.16-.66-.21-1.42-.22-2.13h0Zm.24,2.99s-.05,0-.07.01c-.28.09-.33.36-.35.53-.04.38.19.79.47,1.05.31.27.76.52,1.17.52.14,0,.32-.17.4-.29.07-.11.04-.25.01-.37-.02-.09-.08-.22-.12-.3-.06-.02-.11-.04-.15-.06-.41-.22-.77-.58-1.01-.98-.09-.04-.22-.1-.34-.1h0Z" style="fill: #29576a; stroke: #29576a; stroke-width: .15px;"/>
        <path d="m157,171.99s1.14.04,1.5-.16c.5-.27.92-.74,1.14-1.26.72-1.74.33-5.16.33-5.16,0-.22-.04-.72.11-.79.17.02.16.31.23.47.16-.55.26-1.35.47-1.38.26.09.22,1.09.3,1.45.15-.31.28-.88.52-.9.16.12,0,.81-.02,1.19.2-.22.43-.75.67-.73.14.15-.09.79-.28,1.22.21-.12.54-.6.77-.53.1.18-.4.76-.51,1.07.24-.13.69-.49.89-.36.05.2-.58.66-.73.89.33-.06.85-.31,1.01-.14,0,.21-.68.55-.89.73.35-.01.89-.22,1.04-.04-.01.2-.74.44-.97.63.33,0,.89-.14,1.02.06-.04.2-.84.42-.99.53.37.05.94-.05,1.05.16-.05.2-.83.28-1.05.44.36.04.93-.05,1.04.16-.05.2-.83.3-1.05.45.35.06.92-.04,1.03.18-.05.2-.79.24-1.03.43.36.07.94.04,1.03.26-.07.19-.88.21-1.06.31.37.1.95.12,1.01.35-.09.18-.77.03-1.08.19.36.11.94.18.99.41-.11.18-.78.04-1.05.14.4.15.97.24,1.01.47-.11.17-.6.03-1.06.1.41.23.95.28.99.52-.12.17-.79.09-1.12.03.1.17.88.32.9.56-.13.16-.79.04-1.11-.03.09.22.85.41.85.66-.14.15-.79-.03-1.11-.14.17.25.78.53.74.76-.17.12-.78-.15-1.07-.33.07.27.67.64.58.87-.19.09-.73-.3-1.01-.54.02.33.49.77.36.97-.2.05-.66-.45-.9-.76-.04.28.39.79.24.97-.2.03-.51-.35-.71-.65.01.35.15.73-.05.88-.27-.02-.36-.42-.61-.8-.03.34.06.72-.15.84-.2-.05-.36-.22-.45-.71-.08.2-.03.29-.25.39-.19-.06-.21-.41-.32-.89-.04.13-.08.31-.24.41-.19-.06-.24-.53-.31-.94-.03.08-.1.26-.23.36-.19-.06-.33-.72-.36-1.07" style="fill: #29576a; stroke: #29576a; stroke-width: .15px;"/>
        <path d="m160.11,167.81c.58.32.86.82.97,1.35.12.57.17,1.27-.15,1.89-.04.07-.14.22-.19.15-.12-.15-.14-.4-.2-.54-.14-.33-.32-.55-.65-.71.16-.66.21-1.42.22-2.13h0Zm-.24,2.99s.05,0,.07.01c.28.09.33.36.35.53.04.38-.19.79-.47,1.05-.31.27-.76.52-1.17.52-.14,0-.32-.17-.4-.29-.07-.11-.04-.25-.01-.37.02-.09.08-.22.12-.3.06-.02.11-.04.15-.06.41-.22.77-.58,1.01-.98.09-.04.22-.1.34-.1h0Z" style="fill: #29576a; stroke: #29576a; stroke-width: .15px;"/>
        <path d="m159.09,181.85c-.02.45-.34.51-.56.27.02.43-.3.57-.68.27.06.54-.44.56-.68.27,0,.66-.49.44-.68.27-.05.13-.23.25-.43.28-.2-.02-.38-.14-.43-.28-.2.16-.68.39-.68-.27-.25.28-.74.27-.68-.27-.38.3-.71.16-.68-.27-.22.24-.54.18-.56-.27.82-.81,2.34-2.23,3.04-3.12.7.89,2.22,2.31,3.04,3.12h0Z" style="fill: #29576a; stroke: #29576a; stroke-width: .15px;"/>
        <path d="m156.39,182.34c.08.07.22.15.33.15s.21-.1.21-.37c.1.12.25.18.36.15.12-.03.2-.15.18-.38.15.12.29.16.39.12s.16-.16.15-.34c.09.1.22.14.33.1s.21-.14.21-.33c-.65-.68-1.51-2.11-2.52-2.81-1.02.7-1.87,2.13-2.52,2.81,0,.19.1.3.21.33.11.03.24,0,.33-.1,0,.18.05.3.15.34.1.04.24,0,.39-.12-.02.23.06.35.18.38.12.03.27-.03.36-.15,0,.28.1.37.21.37s.25-.08.33-.15c.04.11.18.21.35.23.16-.02.31-.12.35-.23Z" style="fill: #29576a; stroke: #29576a; stroke-width: .15px;"/>
        <path d="m156.68,178.19c.49.17.72-.38.39-.87.67-1.87.25-5.17-.05-5.67.1-1.21-.17-2.02-.99-2.23-.82.21-1.09,1.02-.99,2.23-.3.51-.72,3.81-.05,5.67-.32.49-.09,1.05.39.87.1.35.25,1.11.65,1.23.4-.12.55-.88.65-1.23Z" style="fill: #29576a; stroke: #29576a; stroke-width: .15px;"/>
        <path d="m157.03,171.65c.05-.6,0-1.17-.15-1.61-.16-.44-.42-.75-.84-.75s-.68.31-.84.75-.2,1-.15,1.61c-.09.15-.19.54-.27,1.06.68.33,1.02-1.36,1.71-1.39.14,0,.38.01.54.33h0Z" style="fill: #29576a; stroke: #29576a; stroke-width: .15px;"/>
        <path d="m157.1,177.32c.32.49.09,1.05-.39.87-.1.35-.25,1.11-.65,1.23-.4-.12-.55-.88-.65-1.23-.49.17-.72-.38-.39-.87-.34-.93-.4-2.21-.34-3.33-.06,1.09.36,2.36.67,3.22.03.1.02.21-.04.29-.11.17-.1.33-.08.37,0,.02.01.02,0,.02,0,0,0,0,.07-.02.17-.06.38.05.43.23.05.19.12.3.2.51.05.12.08.13.12.18.05-.06.08-.06.13-.18.09-.21.15-.32.2-.51.05-.18.26-.29.43-.23.06.02.07.02.07.02,0,0,0,0,0-.02.02-.04.03-.2-.08-.37-.06-.08-.07-.19-.04-.29.31-.85.72-2.12.66-3.24.06,1.11,0,2.41-.34,3.35Z" style="fill: #29576a; stroke: #29576a; stroke-width: .15px;"/>
        <path d="m156.7,178.19c.49.17.72-.38.39-.87.67-1.87.25-5.17-.05-5.67.1-1.21-.14-2.33-.99-2.33s-1.09,1.13-.99,2.33c-.3.51-.72,3.81-.05,5.67-.32.49-.09,1.05.39.87.1.35.25,1.11.65,1.23.4-.12.55-.88.65-1.23Z" style="fill: #29576a; stroke: #29576a; stroke-width: .15px;"/>
        <path d="m155.8,170.11c0-.26,0-.52-.03-.78-.31-.31-.6-.55-.85-.65.1.23.27.63.36,1.22-.42-.01-.58-.06-.81-.11.11.16.31.34.65.5.22.03.45-.04.67-.19h0Z" style="fill: #29576a; stroke: #29576a; stroke-width: .15px;"/>
        <path d="m156.12,169.94c-.02-.08.03-.14.11-.13.12.01.15.21.11.34-.08,0-.2-.13-.22-.21h0Z" style="fill: #29576a; stroke: #29576a; stroke-width: .15px;"/>
        <path d="m174.22,187.95c.93.14,2.17.13,3.23-.3.83-.33,1.54-.92,1.91-1.88,0,0,1.45-.72,2.05-2.87.34-1.21.47-2.62.29-3.86-.3-1.97-1.76-4.39-2.55-6.42-.26-.66-.32-1.44-.05-1.6.07-.04.21.02.21.02.09.33,1.05.44,1.37.3.71-.23,1.28.37,1.54.35,0,0,.16-.01.12-.32-.06-.44-1.14-.97-1.14-.97.26-.04.36-.44-.05-.48-.14-.52-.79-1-1.45-1.01-1.04,0-2.18,1-2.24,2.11-.14,2.42,1.33,4.01,1.83,7.17.13.81.03,1.9-.41,2.59-.42.67-.79.92-1.56.78,0,0,.73-1.18.79-2.13.16-2.37-1.02-3.53-2.8-4.97-2.78-2.25-5.2-5.22-6.21-7.94-.9.38-.2,2.07,0,2.46l-.72-.52c-.58.43-.02,1.38.46,2.29l-.85-.2c-.5.59.09,1.06.4,1.65l-.83-.03c-.45.42.38,1.08.63,1.59l-.81-.07c-.28.55.3.98.67,1.44l-.64.07c-.38.87,1.36,1.55,1.62,2.27l-.78-.06c-.12.95,1.13,1.75,1.77,2.13.61.36.58.83.69,1.19,0,0-.41,0-.68-.14-.76-.43-1.25-1.44-1.93-2-.24-.2-.6-.23-.81-.46-.21-.23-.39-.85-.39-.85-.54.54-.65.9-.27,1.54l-.5-.15c.1.98.03,1.24.42,1.43,0,0,.04.41,0,.73-.15,1.12.04,2.31.58,3.31.7,1.32,3.62,2.79,3.62,2.79-.72,0-1.12.37-1.17.84,1.83-.14,3.11,1.6,4.63.17h0Z" style="fill: #29576a; stroke: #29576a; stroke-width: .15px;"/>
        <path d="m169.17,167.52c.86,3.34,2.8,5.36,4.55,6.93.88.79,1.69,1.5,2.29,2.25s.98,1.54,1.03,2.53c.02.45-.16,1.1-.49,1.72-.33.62-.85,1.13-1.25,1.66.68-.29,1.22-.83,1.57-1.49s.56-1.33.54-1.9c-.05-1.08-.48-1.95-1.11-2.75-.63-.79-1.46-1.5-2.33-2.29-1.75-1.57-3.62-3.53-4.79-6.67h0Zm-.77,1.26c-.03.68.19,1.27.53,1.81.29.47.66.91,1.01,1.34.21.24.45.24.19-.16-.34-.42-.7-.84-1-1.28-.35-.52-.63-1.07-.73-1.7h0Zm11.17.34s-1.38.13-1.73,1.52c-.36,1.42.19,2.78.78,4.18s1.21,2.84,1.11,4.39c-.06.96-.41,1.71-.87,2.19-.46.47-1.07.46-1.6.48.47.47,1.34.33,1.87-.22s.91-1.39.97-2.43c.1-1.67-.53-3.07-1.11-4.46s-1.17-2.81-.85-4.08c.3-1.18,1.43-1.57,1.43-1.57h0Zm.88,1.16c-.21.59-.73.65-1.17.78.09.33,1.05.44,1.37.3.71-.23,1.28.37,1.54.34-.62-.52-1.18-.78-1.97-.74.81-.26,1.4.15,2.06.63l.02-.21c-.06-.44-1.12-.94-1.12-.94-.39-.11-.5-.18-.74-.16h0Zm-12.51.45c.12.67.46,1.19.9,1.65.39.4.85.74,1.28,1.09.26.19.49.14.16-.19-.43-.34-.87-.68-1.26-1.04-.45-.43-.85-.9-1.09-1.5h0Zm-.38,1.59c.19.66.59,1.14,1.08,1.54.42.35.92.65,1.38.95.27.16.49.08.13-.22-.46-.29-.93-.58-1.35-.9-.5-.38-.94-.81-1.24-1.37h0Zm-.13,1.54c.24.64.68,1.09,1.2,1.45.45.32.96.56,1.45.81.29.14.5.04.11-.22-.49-.25-.97-.49-1.42-.78-.53-.33-1-.73-1.35-1.27h0Zm4.68.25c.18.43.49.68.81.88s.79.36,1.17.32c-.27-.23-.72-.39-1.02-.57-.29-.18-.58-.42-.96-.63h0Zm-.37.9c.25.39.6.58.95.72.35.14.84.22,1.2.11-.31-.17-.76-.25-1.09-.38-.32-.13-.65-.32-1.06-.46h0Zm-4.23.3c.24.64.68,1.08,1.2,1.44.45.32.96.57,1.45.82.29.14.5.04.11-.22-.49-.25-.97-.5-1.42-.79-.53-.33-1-.72-1.35-1.26h0Zm4.07.66c.31.35.69.49,1.05.57.37.08.87.1,1.21-.07-.33-.12-.81-.14-1.14-.22s-.69-.21-1.12-.29Zm-.19.96c.35.31.74.41,1.11.45.37.04.87-.01,1.19-.22-.34-.08-.82-.03-1.17-.07-.34-.04-.7-.13-1.13-.16h0Zm-3.1.56c.24.64.68,1.09,1.2,1.45.45.32.96.56,1.45.81.29.14.5.04.11-.22-.49-.25-.98-.49-1.43-.78-.53-.33-.99-.73-1.34-1.27h0Zm-1.5.26c-.07.57.06.91.59,1.09.15.04.28.07.35.13.26.21.44.58.63.92.19.33.37.69.66.98.63.65,1.36,1.25,2.2,1.64,1.19.56,2.91.37,2.91.37,0,0-1.68-.19-2.76-.7-.78-.36-1.47-.93-2.08-1.56-.24-.24-.42-.58-.61-.92-.19-.34-.39-.69-.72-.95-.16-.13-.34-.16-.49-.19-.41-.09-.41-.25-.69-.8h0Zm4.59.09c.36.29.75.38,1.12.4.37.02.88-.05,1.19-.26-.35-.07-.82-.01-1.17-.03-.35-.02-.71-.09-1.14-.1h0Zm2.56.77c-.35-.02-.81.11-1.16.14-.35.02-.71,0-1.14.05.4.24.79.27,1.17.24.37-.03.85-.17,1.13-.42h0Zm-7.64.29c.28.73.62.79,1.22.98.27.53.44,1,.77,1.43.34.45,1.05,1.03,2.04,1.09-.84-.35-1.5-.87-1.81-1.27s-.41-.89-.78-1.45c-.12-.18-.35-.18-.5-.19-.44-.05-.58-.32-.94-.58h0Zm7.86.41c-.35,0-.79.17-1.13.23-.34.05-.72.06-1.14.15.42.21.82.2,1.19.14.37-.06.83-.24,1.09-.51h0Zm.45.5c-.34.09-.72.36-1.04.49-.32.13-.68.23-1.08.41.45.1.83,0,1.18-.15.34-.15.75-.42.94-.76h0Zm.48.31c-.29.2-.58.57-.84.8-.26.23-.57.43-.88.73.46-.05.8-.27,1.08-.51.28-.25.57-.64.64-1.02h0Z" style="fill: #29576a; stroke: #29576a; stroke-width: .15px;"/>
        <path d="m180.52,170.07c0,.09-.07.16-.16.16s-.23-.07-.23-.16.14-.16.23-.16.16.07.16.16Z" style="fill: #29576a; stroke: #29576a; stroke-width: .15px;"/>
        <path d="m190.65,174.47l-1.97.1c-.47-.14-1.51.26-1.51.26l-.4.03c-.26-.02-.44.1-.5.16-.2-.13-.58.11-.35.42-.46.21-.09.65.18.53-.09.37.39.4.57.13,0,0,.09-.19.17-.25.1-.07.27.04.35-.05.08-.08.08-.28.08-.28.1.16.05.08.45.25l.12-.17c.13.14.18.18.49.27l.17-.25c.09.13.13.13.39.25,0,0,.23.45.55.66.35.23,1.06.58,1.06.58l.15-2.66h0Zm5.73.8l-1.5.18-1.5.17c.15.02.35.29.35.29,0,0-.2.23.08.72.2.35.8.43.96.77.12.25-.04,1.28-.04,1.28-.14.24-.26.38-.36.32-.25-.06-.44.04-.51.09-.18-.16-.58.03-.4.37-.49.15-.18.65.1.56-.14.36.33.45.55.21,0,0,.12-.18.21-.23.1-.05.26.06.35,0,.09-.07.12-.37.12-.37.25-.18.38-.41.46-.66.18-.09.19-.05.42-.41l-.15-.15c.16-.11.21-.15.36-.44l-.23-.21c.14-.07.15-.11.31-.34,0,0-.29-.15-.39-.34-.07-.14,0-.46,0-.46.35-.47.64-.9.8-1.34h0Z" style="fill: #29576a; stroke: #29576a; stroke-width: .15px;"/>
        <path d="m197.41,168.61c-.11,0-.22.02-.3.06-.21.1-.48.51-.48.51-.2-.06-.32-.14-.5-.22s-.4-.14-.71-.12c-.49.03-.85.22-1.07.47-.23.25-.34.53-.35.76-.03.59.29,1.15.94,1.41.44.18.95.12,1.43.08s.95-.08,1.25.03c.35.12.54.33.58.68.04.35-.03.61-.19.83-.07.1-.2.15-.35.19-.26-.33-.67-.49-1.12-.56-1.04-.15-2.06.56-3.11.49-1.05-.07-1.84-1.87-1.84-1.87l-1.67,3.44s-.43.96-.41,1.47c.02.54.62,1.18.62,1.18.09.26-.44,1.63-.44,1.63-.19.2-.21.34-.29.26-.23-.12-.44-.07-.52-.04-.13-.2-.57-.12-.48.25-.51.02-.33.58-.04.57-.22.31.21.52.48.34,0,0,.16-.15.25-.17.11-.03.23.13.34.08.11-.05.22-.32.22-.32.28-.11.82-.65.96-.88.19-.04.2,0,.52-.29l-.1-.19c.19-.06.24-.08.45-.33l-.16-.26c.15-.03.17-.06.39-.25,0,0-.13-.27-.18-.47-.04-.15.2-.43.2-.43,0,0,.78.22,1.51-.03.65-.22,1.15-.93,1.84-.93.15,0,.39.25.39.25,0,0-.12.62.21,1.07.24.33.84.34,1.04.66.14.23.08.9.08.9-.11.26-.21.4-.32.36-.26-.03-.44.09-.5.15-.19-.14-.57.1-.35.41-.47.21-.1.66.17.54-.09.37.38.41.57.14,0,0,.1-.19.18-.25.1-.07.27.04.35-.05.08-.08.08-.39.08-.39.22-.2.33-.45.38-.71.17-.11.19-.07.38-.46l-.17-.13c.15-.12.19-.16.3-.47l-.25-.19c.13-.08.13-.12.26-.37,0,0-.3-.12-.42-.29-.09-.13-.07-.46-.07-.46.59-1.03.91-1.81.55-2.89.18-.11.34-.23.46-.4.22-.31.33-.77.27-1.22-.06-.51-.42-.88-.89-1.05-.45-.16-.96-.1-1.44-.06s-.93.07-1.23-.05c-.51-.21-.68-.54-.66-.97,0-.1.07-.3.23-.47s.39-.33.76-.35c.25-.01.42.01.56.08.14.06.39.16.64.24,0,0,.33.31.58.41.24.09.53.07.78,0,.85-.25.89-1.07.89-1.07,0,0-.24.27-.5.21-.45-.11-.34-.3-.68-.45-.08-.04-.19-.06-.3-.06h0Z" style="fill: #29576a; stroke: #29576a; stroke-width: .15px;"/>
        <path d="m187.64,171.95c.22-.04.42-.09.68-.04.48.11.95.59.95.59l.34-.31s-.51-.58-1.2-.73c-.36-.08-.6,0-.81.05s-.43.12-.55.02c-.19-.16-.11-.45-.25-.62-.29.13-.23.73.05.93.28.2.57.16.79.12h0Z" style="fill: #29576a; stroke: #29576a; stroke-width: .15px;"/>
        <path d="m188.12,171.21c.94.07,1.16.43,1.15.88,0,.17-1.02.05-1.14.02,0,0-.02.2.06.3.2.25.99.22.99.22,0,0,.16.09.04.25-.22.29-.53.32-.73.57-.18.23-.22.44-.19.73.03.24.27.44.28.68.01.24-.2.43-.2.43.2.08.48.06.64-.29.08.55-.09.94.53,1.33-.09-.35.04-.53.3-.69,0,0,.23.41.27.71.05.36-.15.67-.15.67,0,0,.44-.06.6-.53.13-.38,0-.62.21-1.05.12.16.18.35.46.45,0,0-.08-.44,0-.66.13-.37.57-.57.75-.93.14-.27,0-.69,0-.69.18.15.31.34.71.31,0,0-.24-.37-.21-.6.06-.38.36-.67.42-1.05.05-.34.02-.69-.17-.98-.13-.2-.47-.39-.47-.39.42-.05.56-.27.61-.49,0,0-.29.04-.39,0-.43-.19-.56-.71-.98-.94-.32-.17-.77-.19-.77-.19-.03-.13-.15-.41-.68-.67-.17.24-.18.47-.15.7,0,0-.72,0-1.04.24-.1.07-.08.29-.08.29,0,0-.92.21-1.11.44-.08.09.03.49.1.73,0,.05.09.11.33.2h0Z" style="fill: #29576a; stroke: #29576a; stroke-width: .15px;"/>
        <path d="m190.11,168.85s-.15.12,0,.61c.03.09.09.32.09.32,0,0,.1-.13.12-.21.03-.12.03-.26,0-.39-.04-.19-.21-.34-.21-.34h0Zm.98.77c-.11,0-.26.03-.38.07s-.21.11-.21.11c0,0,.11,0,.23-.03.12-.03.26-.06.35-.06.15,0,.31.04.42.12.08.06.11.16.16.27s.1.24.22.3c.06.03.13.02.19.02s.09-.06.09-.06c0,0-.05-.03-.1-.03-.05,0-.11,0-.13,0-.08-.05-.13-.14-.18-.25s-.08-.24-.19-.32c-.14-.1-.31-.14-.47-.14h0Zm-3.18.48l-.23.17-.04.13.09.41.04-.09c-.03-.19.05-.32.16-.28,0,0,.11-.09.11-.15,0-.08-.13-.19-.13-.19h0Zm2.99.03c-.1,0-.17.06-.17.06,0,0,.08.04.17.04.09,0,.2.01.27.05.1.05.18.11.26.19s.16.16.27.22c.15.07.34.16.52.11.07-.02.15-.06.21-.09s.08-.11.08-.11c0,0-.06,0-.12.03-.06.04-.14.08-.18.09-.13.03-.31-.04-.45-.11-.1-.05-.18-.12-.26-.2s-.17-.15-.28-.21c-.1-.05-.21-.06-.31-.06h0Zm-.76.2c.05.2.21.29.34.4.11.09.19.22.23.41-.14-.06-.29-.12-.46-.12-.02,0-.03-.01-.05,0h-.14s.11.1.11.1c.25.21.37.45.36.67-.13-.08-.27-.17-.4-.19l-.13-.02.08.11c.1.16.17.26.2.37.02.08,0,.19-.02.3l-.19-.13-.05-.03-.04.04c-.09.12-.18.21-.3.26s-.29.08-.52.08v.12c.23,0,.42-.02.57-.08.13-.06.21-.16.3-.26l.25.17.07.06.03-.08c.05-.19.06-.33.02-.46-.02-.08-.08-.16-.13-.25.1.05.2.09.31.15l.07.05.02-.08c.06-.25-.07-.5-.28-.73.13.03.26.07.41.11l.08.03v-.08c-.03-.3-.16-.47-.3-.58-.14-.12-.28-.19-.41-.3h0Zm-1.67.25s-.07.03-.07.07.03.06.07.06.07-.02.07-.06-.03-.07-.07-.07Zm-.34.06s-.06.03-.06.07.02.06.06.06.07-.02.07-.06-.03-.07-.07-.07Zm2.91.08s.04.11.14.2.23.18.38.2c.23.03.48.1.61.19.14.09.27.25.3.41.03.13-.03.26-.08.41-.06.14-.12.29-.1.45,0,.07.05.16.08.23s.11.09.11.09c0,0,0-.07-.04-.14s-.06-.14-.07-.19c-.01-.13.04-.27.09-.41.06-.14.12-.29.08-.45-.04-.19-.17-.36-.33-.47-.16-.11-.42-.16-.65-.2-.11-.02-.24-.1-.34-.18s-.2-.13-.2-.13h0Zm-2.72.13s-.07.03-.07.07.03.06.07.06.07-.02.07-.06-.03-.07-.07-.07Zm.25,0s-.07.03-.07.07.03.06.07.06.07-.02.07-.06-.03-.07-.07-.07Zm2.58.45c-.05,0-.09.02-.09.02,0,0,.12.06.26.09.14.04.31.1.4.2.11.13.14.23.13.33,0,.1-.06.21-.1.35-.02.07-.01.14,0,.21s.07.12.12.16c.12.04.25-.02.29-.03-.04-.04-.19-.03-.25-.05-.04-.03-.07-.07-.08-.12-.02-.05-.02-.1,0-.14.05-.13.1-.24.11-.37,0-.12-.04-.26-.16-.41-.11-.12-.28-.19-.43-.23-.08-.02-.15-.02-.2-.02h0Zm-.29.5s.09.07.2.11c.11.04.24.11.3.2.08.11.1.27.12.42.01.08.02.15.05.23.03.07.08.14.16.18.07.04.14.02.2,0,.06-.01.1-.03.15,0,.05.02.08.05.1.1.03.05.04.12.05.18.01.13.05.25.05.25,0,0,.06-.11.05-.25,0-.07-.02-.14-.06-.21s-.08-.13-.16-.15c-.08-.02-.15,0-.2,0-.05.01-.09.01-.13,0-.06-.03-.1-.07-.12-.13-.02-.06-.04-.12-.05-.2-.02-.15-.03-.33-.13-.47-.08-.11-.23-.18-.35-.23-.12-.05-.23-.03-.23-.03Zm-.15.43s0,.1.04.21c.04.11.08.23.08.31,0,.14-.04.24-.08.35s-.09.23-.05.39c.02.07.06.12.11.16s.11.06.16.09c.1.06.18.13.19.33,0,.19-.07.33-.15.47s-.18.28-.18.44c0,.11.04.25.08.36s.12.18.12.18c0,0,0-.1-.04-.21-.04-.11-.08-.24-.08-.33,0-.13.08-.25.17-.4s.17-.31.16-.52c-.01-.23-.12-.34-.24-.41-.06-.04-.11-.06-.15-.09s-.06-.06-.08-.1c-.03-.13,0-.22.04-.33.04-.11.11-.23.09-.39,0-.1-.05-.24-.09-.35s-.12-.17-.12-.17h0Zm.31.14s.05.12.13.24.16.26.18.34c0,.04-.01.09-.04.15s-.06.12-.04.2h0v.02c.14.2.25.29.32.4.07.1.1.21.05.44-.06.26-.27.45-.27.45,0,0,.29-.13.36-.43.05-.24.03-.39-.05-.51-.08-.12-.2-.21-.32-.39h0s0-.1.03-.15c.03-.06.06-.12.05-.2-.02-.11-.11-.25-.2-.37-.08-.12-.21-.19-.21-.19Zm-.46.4s-.1.11-.16.27-.11.37-.12.51c-.01.2.09.31.18.41.09.11.17.2.17.37,0,.12-.06.22-.13.34s-.14.23-.16.38c-.04.35.1.82.08,1.14,0,.07-.04.18-.08.27s-.02.17-.02.17c0,0,.08-.05.11-.14s.06-.21.07-.29c.02-.35-.11-.82-.08-1.14.01-.12.09-.22.16-.34s.14-.24.14-.39c0-.2-.11-.32-.2-.42-.09-.1-.17-.19-.16-.36,0-.12.06-.31.12-.47s.08-.31.08-.31h0Zm-1.11.24c-.09.15-.23.26-.4.36s-.35.2-.42.38c-.1.23-.06.41,0,.56s.15.27.17.41c.02.15,0,.25-.04.31-.03.06-.06.11-.06.11,0,0,.09.01.13-.07.04-.08.08-.2.06-.37-.02-.16-.12-.3-.18-.43s-.09-.28,0-.48c.06-.14.22-.24.39-.34s.34-.22.35-.43h0Zm.26.04s.07.24-.03.5c-.04.1-.11.18-.18.27s-.14.2-.16.33c-.02.17.07.33.14.48.08.15.14.29.11.42-.05.23-.15.33-.22.43s-.12.22-.02.41c0-.2.03-.27.09-.37.07-.09.17-.21.23-.46.04-.17-.04-.33-.11-.48s-.15-.3-.13-.43c.01-.1.07-.19.14-.28s.15-.18.19-.3c.11-.29-.06-.53-.06-.53h0Zm.41.08s-.09.17-.15.39c-.03.11-.05.22-.08.32-.02.1-.04.18-.04.25,0,.12.06.21.11.29s.09.15.09.25c0,.08-.04.17-.09.25s-.11.18-.11.29c0,.07.04.14.07.2s.18.22.18.22c0,0-.08-.21-.1-.26-.03-.05-.05-.12-.05-.15,0-.08.04-.17.09-.25s.11-.18.11-.29c0-.12-.06-.21-.11-.29s-.09-.15-.09-.25c0-.04,0-.13.03-.23s.05-.21.08-.31c.06-.21.07-.41.07-.41h0Zm-.61.22s-.07.1-.19.21c-.06.05-.14.11-.22.16s-.14.1-.17.17c-.05.13-.03.29,0,.41.04.17.17.3.25.43.16.3.06.57.06.57,0,0,.2-.27.02-.6-.08-.15-.2-.27-.24-.41-.03-.12-.04-.25,0-.36.01-.03.07-.08.14-.13s.15-.11.22-.17c.13-.12.13-.27.13-.27h0Z" style="fill: #29576a; stroke: #29576a; stroke-width: .15px;"/>
        <path d="m189.54,170.15l-.43-.09s-.13-.08-.1-.2c0-.03.05-.05.08-.06.26-.02.46.34.44.34h0Z" style="fill: #29576a; stroke: #29576a; stroke-width: .15px;"/>
        <path d="m197.89,169.2c-.09-.03-.15-.1-.23-.18s-.15-.16-.27-.17c-.03,0-.06,0-.09,0-.1.01-.2.06-.28.1-.11.06-.17.16-.17.16,0,0,.11-.02.22-.08.11-.05.24-.1.32-.09.09,0,.15.07.22.14s.14.16.26.2c.1.03.18-.01.27-.07-.09-.02-.16-.02-.24-.01h0Zm.39.19c-.12.06-.27.08-.41.07-.09-.01-.18-.06-.27-.11s-.19-.11-.3-.13c-.05,0-.09,0-.13,0-.29,0-.43.22-.43.22,0,0,.22-.18.54-.12.09.02.18.08.27.13.09.05.19.11.31.12.15.02.31-.02.45-.08.09-.04.13-.11.16-.21-.09.03-.14.08-.2.13h0Zm-.6.23c-.07,0-.15.03-.23.05-.07.02-.14.03-.21,0-.06-.02-.16-.07-.24-.11s-.16-.06-.16-.06c0,0,.03.08.11.13s.18.1.26.12c.09.02.18.01.25,0s.15-.04.2-.04c.24,0,.39.12.39.12,0,0-.11-.21-.39-.22Z" style="fill: #29576a; stroke: #29576a; stroke-width: .15px;"/>
        <path d="m185.83,175c-.21.04-.34.28-.3.41.1-.07.21-.17.37-.09.09-.05.13-.11.12-.18,0-.1-.08-.14-.19-.14Zm0,.61s-.09.01-.13.04c-.16.15-.14.42-.04.52.04-.11.08-.25.25-.27.05-.09.06-.17.02-.23-.03-.04-.06-.05-.1-.06h0Zm1.32.07s-.04,0-.07,0c-.06.02-.11.09-.11.19.13.11.09.26.07.38.14-.02.31-.24.25-.45-.04-.07-.08-.12-.14-.12h0Zm-.86.41c-.06,0-.1.05-.14.12-.05.21.12.43.25.45-.02-.12-.07-.26.07-.38,0-.1-.05-.17-.11-.19-.02,0-.05-.01-.07,0h0Zm7.16,2.92c-.22,0-.38.22-.37.36.11-.05.23-.13.38-.03.1-.03.15-.09.15-.16,0-.1-.06-.15-.16-.17h0Zm-5.1.09c-.15.03-.28.16-.29.26.12-.02.26-.08.38.06.1,0,.17-.05.19-.11.03-.09-.02-.16-.11-.21-.05-.01-.11-.01-.16,0Zm7.14.26c-.21.05-.32.3-.27.43.09-.08.19-.18.36-.11.09-.05.12-.12.11-.19-.02-.1-.09-.13-.2-.13Zm-2.21.25s-.05.01-.08.02c-.18.12-.21.39-.12.5.06-.1.12-.24.29-.23.07-.08.09-.16.06-.22-.02-.04-.06-.07-.09-.08-.02,0-.03,0-.06,0h0Zm-5.17.04c-.2.07-.31.33-.25.45.09-.08.18-.19.35-.14.08-.06.13-.13.11-.2-.01-.05-.04-.08-.08-.09-.04-.02-.08-.02-.13-.02Zm6.45.25c-.07.01-.12.07-.14.17.11.13.04.28,0,.39.14,0,.35-.19.33-.41-.03-.08-.06-.13-.12-.14-.02,0-.04-.01-.07,0h0Zm2.28.08s-.04,0-.07,0c-.06.03-.11.1-.1.2.14.11.11.26.09.38.13-.03.29-.27.23-.47-.04-.07-.09-.11-.15-.11h0Zm-1.32,0s-.09.02-.13.05c-.15.15-.12.43,0,.52.04-.11.06-.25.24-.28.05-.09.05-.18,0-.24-.03-.04-.06-.05-.1-.05h0Zm-1.85.18s-.09.05-.12.09c-.09.2.05.45.18.49,0-.12-.03-.27.12-.36.01-.1-.02-.17-.08-.21-.02-.01-.05-.02-.07-.02-.02,0-.02,0-.04,0Zm-4.36.09s-.1.05-.13.12c.08.16-.03.27-.09.37.13.04.38-.09.41-.3,0-.08-.02-.14-.08-.17-.02,0-.04-.02-.07-.02-.02,0-.03,0-.05,0h0Zm-.88.03s-.09.02-.14.06c-.13.17-.07.44.05.52.03-.12.05-.27.22-.32.04-.09.02-.17-.03-.22-.02-.02-.04-.03-.06-.04-.01,0-.02,0-.04,0h0Zm7.58.14c-.06,0-.11.06-.14.13-.04.21.15.42.28.43-.03-.12-.08-.26.05-.38,0-.1-.06-.16-.12-.18-.02,0-.05-.01-.07,0h0Z" style="fill: #29576a; stroke: #29576a; stroke-width: .15px;"/>
        <path d="m137.78,124.47c-.37.14-.82.28-1.2.43-.85.34-1.9.96-2.71,1.38-2.18,1.1-3.97,2.83-5.59,3.56,0,0-.41-.18-.63-.23-.63-.15-1.9.02-1.9.02l-.63,5.84,1.84,1.95c2.75-.05,4.6-1.54,5.74-4.17.46-.74,1.08-1.6,2.13-2.62.96-.52,1.58-1.74,2.68-2.7l.28-3.45Z" style="fill: #29576a; stroke: #29576a; stroke-width: .15px;"/>
        <path d="m130.39,97.26c-.78-4.37,1.98-6.02,2.89-10.23.34.81.47,2.06.55,2.94.36,3.93-1.09,6.12-1.44,7.67-.75.69-1.92.61-2-.38h0Z" style="fill: #29576a; stroke: #29576a; stroke-width: .15px;"/>
        <path d="m152.56,125.08c.28-.39.08-1.45-.32-1.64,0,0-1.57-1.14-2.44-1.55-.56-.27-.83-.32-1.77-.58-.81-.23-1.8-.18-2.45-.2-.99-.04-2.06.24-2.86.53-1.48.52-3,1.37-3.71,2.23h2.85s.44.19.44.19c2.14,1.54,4.15.13,6.94,1.2.67.24.72.81.84,1.12,0,0,.15-.36.2-.67.05-.34-.05-.87-.26-1.14-.24-.29-.58-.64-.58-.64,0,0,1.36-.03,1.98.29.45.23.73,1.25.73,1.25l.41-.4Z" style="fill: #29576a; stroke: #29576a; stroke-width: .15px;"/>
        <path d="m124.02,101.01c-1.37,3.24-1.95,6.49-2.14,9.73-2.35,3.01-3.75,5.51-4.87,7.83s-1.52,4.22-3.01,6.37c-1.55,2.23-4.13,4.35-5.87,6.41-1.73,2.06-2.83,4.49-4.24,6.84-1.62,2.69-3.1,4.58-4.7,6.77-2.47,3.37-4.89,6.59-6.35,9.42-1.7,3.31-2.7,6.24-2.94,8.77-.3,3.08-.45,5.24.19,10.3.58,4.52,3.78,11.8,2.9,15.36-.74,3-3.96,4.83-8.67,5.9-11.85,2.7-32.95,2.77-45.63,3.01-.94.19-.64,1.26.7,1.52,9.78,1.41,31.48,2.45,45.87,1.7,6.49-.34,11.65-1.5,15.79-5.13,1.97-1.72,3.71-4.01,5.26-7.04,2.89-2.13,3.39-2.6,4.21-4.02.05-.07.18-.34.2-.36-.09,9.39-4.05,11.55-3.33,14.17.38,1.39,1.49,1.97,3.65,2.26.91.12,3.64-.43,3.64-.43,4.87.11,10.39.5,15.58.14,1.74-.12,4.34-.73,5.22-.53.95.21,2.83.98,4.32,1.35,1.78.45,3.6.66,5.41.79,1.34.25,2.25-.62,3.51-.24.09.47.29,1.4.8,1.34,0,0-.2.85-.7-.28-.29-.64-1.04-1.04-1.48-1.61-.64-.83-.97-1.5-1.89-1.91-.69-.31-1.8-.27-1.8-.27,0,0-.74-.58-1.09-.59-3.07-.09-2.51-1.02-5.67-1.71-1.39-.2-1.31.11-2.37.13-7.06.12-16.4-.21-18.2-2.96-.82-1.26-.45-3.72.31-6.71,1.38-5.36,5.97-9.07,6.4-14.78.21-2.77.05-5.26-.87-7.25,0,0,1.91-3.49,2.8-6.43,1.14-3.76,1.96-8.22,3.27-11.92.45-1.26,1.06-2.44,1.68-3.6.81.32,1.76.77,2.95,1.62.78.96,2.33,1.45,3.55,2.6,1.28,1.21,2.01,3.08,2.01,3.08-.63,2.26.61,3.99.24,7.04.06.98.3.94.59,1.69.09.43-.23,2.26-.33,2.76.42-.13.85-.24,1.27-1.02.45.18.87-.35.95-.79.44.09.77-.43.78-.77v-2.64s.36-.84.39-1.84c.05-.86-.26-1.84-.39-2.5-.54-2.61-1.7-4.7-3.1-6.95-.49-.79-1.31-1.73-1.87-2.47-1.47-1.94-3.44-3.39-4.48-4.85.05-.08.09-.17.12-.25,1.09-2.9-.17-8.97.05-11.87.61-8.29-.7-14.56.41-15.77.19-.2.53-.34,1.11-.34,1.84.02,6.89.9,7.35-.3.23-.02.55-.11.73-.72.58.48.66-.22.7-.46.12-.82.28-2.33-.05-3.11-.25-.6-.79-.88-1.33-1.25-1.53-1.04-6.82-4.45-6.82-4.45.26-.22.51-.48.41-.91-.13-.64-4.08-2.59-6.69-2.6-.78,0-1.44.18-1.84.73-1.45-3.29-2.62-6.88-6.39-8.9,1.47,4.29-.44,8.89,3.73,12.88h0Z" style="fill: #29576a; stroke: #29576a; stroke-width: .15px;"/>
        <path d="m129.44,101.34c.79-2.31,2.5-1.63,3.26-.78-.98,2.17-2.97.97-3.26.78Z" style="fill: #29576a; fill-rule: evenodd; stroke: #29576a; stroke-width: .15px;"/>
        <path d="m132.55,126.52s5.61-3.27,7.04-3.65c1.42-.38,4.15.65,4.15.65l-1.81,2.69s-6.27,2.5-8.73,4.23" style="fill: #29576a; stroke: #29576a; stroke-width: .15px;"/>
        <path d="m172.88,83.92l13.99-10.55-5.66,8.8-8.33,1.74" style="fill: #29576a; stroke: #29576a; stroke-width: .15px;"/>
        <path d="m172.88,83.92l17.16,4.01-10,1.17-7.16-5.18" style="fill: #29576a; stroke: #29576a; stroke-width: .15px;"/>
        <path d="m155.83,87.93l10,1.17,7.05-5.18-17.05,4.01" style="fill: #29576a; stroke: #29576a; stroke-width: .15px;"/>
        <path d="m159,73.38l5.66,8.8,8.22,1.74-13.88-10.55" style="fill: #29576a; stroke: #29576a; stroke-width: .15px;"/>
        <path d="m186.21,111.13h3.03c.77,0,1.46-.34,1.93-.87.41-.47.67-1.08.67-1.75,0-1.44-1.16-2.6-2.6-2.6h-5.97l2.94,5.22Z" style="fill: none; stroke: #29576a; stroke-miterlimit: 11.34; stroke-width: .73px;"/>
        <path d="m159.51,105.91h17.82" style="fill: none; stroke: #29576a; stroke-miterlimit: 11.34; stroke-width: .85px;"/>
        <path d="m162.45,111.13h17.82" style="fill: none; stroke: #29576a; stroke-miterlimit: 11.34; stroke-width: .85px;"/>
        <path d="m141.23,124.14v43.64c0,18.22,14.78,33,33,32.99,18.22,0,32.99-14.77,32.99-32.99v-43.64h-66Z" style="fill: none; stroke: #29576a; stroke-miterlimit: 11.34; stroke-width: 2.03px;"/>
        <path d="m146.45,130.19v36.74c0,15.34,12.45,27.77,27.79,27.77,15.33,0,27.76-12.44,27.77-27.77v-36.74h-55.56Z" style="fill: none; stroke: #29576a; stroke-miterlimit: 11.34; stroke-width: 2.03px;"/>
        <path d="m164.21,130.02v62.85" style="fill: none; stroke: #29576a; stroke-miterlimit: 11.34; stroke-width: .87px;"/>
        <path d="m184.25,130.02v62.85" style="fill: none; stroke: #29576a; stroke-miterlimit: 11.34; stroke-width: .87px;"/>
        <path d="m143.95,125.59l-.96,3.2.64-.96.32.64.32-.64.64.96-.96-3.2" style="fill: #29576a; stroke: #29576a; stroke-width: .15px;"/>
        <path d="m204.47,125.59l-.96,3.2.64-.96.32.64.32-.64.64.96-.96-3.2" style="fill: #29576a; stroke: #29576a; stroke-width: .15px;"/>
        <path d="m184.43,125.59l-.96,3.2.64-.96.32.64.32-.64.64.96-.96-3.2" style="fill: #29576a; stroke: #29576a; stroke-width: .15px;"/>
        <path d="m164.39,125.59l-.96,3.2.64-.96.32.64.32-.64.64.96-.96-3.2" style="fill: #29576a; stroke: #29576a; stroke-width: .15px;"/>
        <path d="m161.36,194.62l2.5,2.22-.6-.99.72-.02-.45-.56,1.14-.18-3.31-.48" style="fill: #29576a; stroke: #29576a; stroke-width: .15px;"/>
        <path d="m148.81,183.37l.85,3.23.04-1.15.61.38-.06-.71,1.05.49-2.49-2.23" style="fill: #29576a; stroke: #29576a; stroke-width: .15px;"/>
        <path d="m143.91,163.07l-.96,3.2.64-.96.32.64.32-.64.64.96-.96-3.2" style="fill: #29576a; stroke: #29576a; stroke-width: .15px;"/>
        <path d="m143.95,143.18l-.96,3.2.64-.96.32.64.32-.64.64.96-.96-3.2" style="fill: #29576a; stroke: #29576a; stroke-width: .15px;"/>
        <path d="m204.47,125.59l.96,3.2-.64-.96-.32.64-.32-.64-.64.96.96-3.2" style="fill: #29576a; stroke: #29576a; stroke-width: .15px;"/>
        <path d="m187.46,194.62l-2.5,2.22.6-.99-.72-.02.45-.56-1.14-.18,3.31-.48" style="fill: #29576a; stroke: #29576a; stroke-width: .15px;"/>
        <path d="m199.35,183.37l-.85,3.23-.04-1.15-.61.38.06-.71-1.05.49,2.49-2.23" style="fill: #29576a; stroke: #29576a; stroke-width: .15px;"/>
        <path d="m204.51,163.07l.96,3.2-.64-.96-.32.64-.32-.64-.64.96.96-3.2" style="fill: #29576a; stroke: #29576a; stroke-width: .15px;"/>
        <path d="m204.47,143.18l.96,3.2-.64-.96-.32.64-.32-.64-.64.96.96-3.2" style="fill: #29576a; stroke: #29576a; stroke-width: .15px;"/>
        <path d="m51.17,202.67l-7.11-1.62s-2.41.02-4.41-.99c-2-1.01-4.24-4.64-4.24-4.64,0,0-1.02,8.9,8.66,8.9" style="fill: #29576a; stroke: #29576a; stroke-width: .15px;"/>
        <path d="m278.74,202.67l7.11-1.62s2.41.02,4.41-.99c2-1.01,4.24-4.64,4.24-4.64,0,0,1.02,8.9-8.66,8.9" style="fill: #29576a; stroke: #29576a; stroke-width: .15px;"/>
      </g>
    </g>
  </g>
</svg>