<?xml version="1.0" encoding="UTF-8"?>
<svg id="b" data-name="Layer 2" xmlns="http://www.w3.org/2000/svg" xmlns:xlink="http://www.w3.org/1999/xlink" viewBox="0 0 339 339">
  <defs>
    <linearGradient id="d" x1="0" y1="169.5" x2="339" y2="169.5" gradientTransform="translate(0 339) rotate(-90)" gradientUnits="userSpaceOnUse">
      <stop offset="0" stop-color="#def7e9"/>
      <stop offset=".26" stop-color="#ebf7ee"/>
      <stop offset=".59" stop-color="#f5f7f1"/>
      <stop offset="1" stop-color="#f9f7f3"/>
    </linearGradient>
  </defs>
  <g id="c" data-name="Layer 3">
    <g>
      <circle cx="169.5" cy="169.5" r="169.5" style="fill: url(#d); stroke-width: 0px;"/>
      <g>
        <path d="m195.1,161.35h4.04c4.46,0,8.09,3.75,8.09,8.36v33.45c0,4.62-3.62,8.36-8.09,8.36h-59.29c-4.46,0-8.09-3.75-8.09-8.36v-33.45c0-4.62,3.62-8.36,8.09-8.36h4.04v-12.54c0-14.6,11.49-26.48,25.6-26.48s25.6,11.88,25.6,26.48v12.54Zm-37.73-12.54v12.54h24.26v-12.54c0-6.91-5.44-12.54-12.13-12.54s-12.13,5.63-12.13,12.54Z" style="fill: #29576a; fill-rule: evenodd; stroke: #29576a; stroke-width: .15px;"/>
        <path d="m169.5,37.44l4.28,13.85h13.85l-11.2,8.56,4.28,13.85-11.2-8.56-11.2,8.56,4.28-13.85-11.21-8.56h13.85l4.28-13.85Z" style="fill: #29576a; stroke: #29576a; stroke-width: .15px;"/>
        <path d="m169.5,265.31l4.28,13.85h13.85l-11.2,8.56,4.28,13.84-11.2-8.56-11.2,8.56,4.28-13.84-11.21-8.56h13.85l4.28-13.85Z" style="fill: #29576a; stroke: #29576a; stroke-width: .15px;"/>
        <path d="m226.47,58.15l4.28,13.85h13.85l-11.2,8.56,4.28,13.84-11.2-8.56-11.2,8.56,4.28-13.84-11.2-8.56h13.85l4.28-13.85Z" style="fill: #29576a; stroke: #29576a; stroke-width: .15px;"/>
        <path d="m272.53,207.23l4.28,13.85h13.85l-11.2,8.56,4.28,13.84-11.2-8.55-11.2,8.55,4.28-13.84-11.2-8.56h13.85l4.28-13.85Z" style="fill: #29576a; stroke: #29576a; stroke-width: .15px;"/>
        <path d="m283.44,151.37l4.28,13.85h13.85l-11.2,8.56,4.28,13.85-11.2-8.55-11.2,8.55,4.28-13.85-11.21-8.56h13.85l4.28-13.85Z" style="fill: #29576a; stroke: #29576a; stroke-width: .15px;"/>
        <path d="m55.57,151.37l4.28,13.85h13.85l-11.2,8.56,4.28,13.85-11.2-8.55-11.2,8.55,4.28-13.85-11.2-8.56h13.85l4.28-13.85Z" style="fill: #29576a; stroke: #29576a; stroke-width: .15px;"/>
        <path d="m65,207.23l4.28,13.85h13.85l-11.2,8.56,4.28,13.84-11.2-8.55-11.2,8.55,4.28-13.84-11.2-8.56h13.85l4.28-13.85Z" style="fill: #29576a; stroke: #29576a; stroke-width: .15px;"/>
        <path d="m272.53,94.04l4.28,13.85h13.85l-11.2,8.56,4.28,13.84-11.2-8.55-11.2,8.55,4.28-13.84-11.2-8.56h13.85l4.28-13.85Z" style="fill: #29576a; stroke: #29576a; stroke-width: .15px;"/>
        <path d="m69.72,94.04l4.28,13.85h13.85l-11.2,8.56,4.28,13.84-11.2-8.55-11.2,8.55,4.28-13.84-11.2-8.56h13.85l4.28-13.85Z" style="fill: #29576a; stroke: #29576a; stroke-width: .15px;"/>
        <path d="m236.83,254.95l4.28,13.85h13.85l-11.21,8.56,4.28,13.85-11.2-8.56-11.21,8.56,4.28-13.85-11.2-8.56h13.85l4.28-13.85Z" style="fill: #29576a; stroke: #29576a; stroke-width: .15px;"/>
        <path d="m112.53,58.15l4.28,13.85h13.85l-11.2,8.56,4.28,13.84-11.2-8.56-11.2,8.56,4.28-13.84-11.2-8.56h13.85l4.28-13.85Z" style="fill: #29576a; stroke: #29576a; stroke-width: .15px;"/>
        <path d="m102.17,254.95l4.28,13.85h13.85l-11.2,8.55,4.28,13.85-11.2-8.55-11.2,8.55,4.28-13.85-11.2-8.55h13.85l4.28-13.85Z" style="fill: #29576a; stroke: #29576a; stroke-width: .15px;"/>
      </g>
    </g>
  </g>
</svg>