<?xml version="1.0" encoding="UTF-8"?>
<svg id="b" data-name="Layer 2" xmlns="http://www.w3.org/2000/svg" xmlns:xlink="http://www.w3.org/1999/xlink" viewBox="0 0 339 339">
  <defs>
    <linearGradient id="d" x1="0" y1="169.5" x2="339" y2="169.5" gradientTransform="translate(0 339) rotate(-90)" gradientUnits="userSpaceOnUse">
      <stop offset="0" stop-color="#def7e9"/>
      <stop offset=".26" stop-color="#ebf7ee"/>
      <stop offset=".59" stop-color="#f5f7f1"/>
      <stop offset="1" stop-color="#f9f7f3"/>
    </linearGradient>
  </defs>
  <g id="c" data-name="Layer 3">
    <g>
      <circle cx="169.5" cy="169.5" r="169.5" style="fill: url(#d); stroke-width: 0px;"/>
      <path d="m167.89,276.85c.1,6.67.19,11.53.29,13.91.1.29.1.67,0,.95v.67c0,1.33.19,2.67.57,3.91.38-1.24.57-2.57.57-3.91,0-.48.19-7.43.48-18.58-.1.1-.19.19-.19.29-.67.86-1.24,1.81-1.71,2.76Zm-19.82-139.09c1.52-1.62,2.95-3.52,4-5.53-.76,1.71-3.72,8.19-.86,8.76,3.14.57,6.67-.38,13.05-8.48-.19-10.38-.38-19.43-.48-26.29h-3.91c-1.91,0-5.05-.19-7.15-3.33-2.29-3.43-2.38-6.95-2.48-9.53-.1-3.72-1.05-10.48-5.72-14.29-3.24-2.57-12-4.57-20.1-1.33-2.67,1.05-8,3.81-13.24,6.38-4.76,2.38-10.86,5.34-12.77,5.34,3.14-1.43,7.34-3.52,11.91-6.1,5.24-2.86,10.77-5.91,13.53-7.05,5.53-2.19,16.1-2.86,21.53,1.52,5.14,4.19,6.19,11.43,6.29,15.34.1,2.57.19,5.72,2.19,8.86,1.81,2.67,4.67,2.67,6.38,2.67h3.43v-2.48c-3.05.19-7.43.38-9.34-3.72-2.29-4.95.19-17.62-7.43-22.96s-19.82-4-30.68,2.29c-10.77,6.19-25.06,14.29-42.68,21.34-17.62,7.05-28.58,9.91-30.68,10.19-2,.38,1.62,1.71,9.15,1.91,7.53.19,13.81-.38,13.81-.38l55.26-25.15s-47.63,23.72-51.64,26.29-7.24,3.43-6.95,5.81,3.33,2.1,11.72,1.91,10.19-.95,13.05-1.81c2.86-.86,33.82-15.15,33.82-15.15,0,0-33.15,16.48-37.92,20.29s.38,5.05,3.62,5.14c3.33.1,12.19-.38,17.15-2.86,4.95-2.48,20.39-12.38,20.39-12.38,0,0-15.24,10.96-18.2,13.43-2.38,2-3.62,3.72-3.05,5.81.86,2.67,5.43,2.38,11.53.19,0,0,6.29-2.19,8.67-4.29,2.38-2.19,9.05-8.1,9.05-8.1,0,0-7.91,8.19-9.91,11.72-1.91,3.52-2.29,4.38-1.33,6.38,1.33,2.86,11.43-.1,14.29-3.14,2.1-2.38,4.1-4.86,5.91-7.53,0,0-3.05,4.95-3.72,7.81-.67,2.86-1.43,5.14,1.33,5.43,3.05.48,5.91.57,9.15-2.95Zm18.86,64.88c.29-.19.57-.38.86-.57h0c.57-.38,1.05-.67,1.43-1.05.76-.48,1.52-1.05,2.29-1.52.1-5.43.29-10.96.38-16.39-1.52-.67-3.14-1.33-4.86-2h0c-.1,0-.19-.1-.29-.1-.19-.1-.29-.1-.48-.19h0c-1.14-.38-2.19-.86-3.43-1.24-1.43-.57-2.86-1.05-4.29-1.62-9.53,5.05-11.43,7.43-11.43,12.1,0,6.57,5.62,9.53,15.34,15.72,1.52-1.14,3.05-2.19,4.48-3.14Zm-11.72-11.72s-.67-4.19,10.1-9.05c.29-.1.57-.29.86-.38.1,6.57.19,13.15.38,19.72-5.33-3.62-11.34-7.05-11.34-10.29Zm16.29,80.88c-.48.57-.95,1.14-1.43,1.62,2.76,3.72,2.57,7.34,1.05,12,1.43-1.62,4.29-5.72,1.91-11.05-.48-.86-.95-1.71-1.52-2.57h0Zm-4.38-39.06c1.05,1.05,2.29,2.29,3.52,3.52h0c.76.76,1.52,1.52,2.38,2.38.1.1.29.19.48.38,6.48-5.62,12.38-10.96,12.38-17.62,0-5.24-5.05-10-10.1-13.81-.48.29-.95.57-1.43.95-1.14.76-2.19,1.43-3.14,2.1h0s-.1,0-.1.1c-.19.19-.48.29-.67.48h0c-1.33.95-2.57,1.81-3.72,2.67.19,6.38.29,12.77.38,18.86h0Zm4.1-21.05c6.29,4.57,8.76,7.53,8.76,10.77s-3.52,7.24-9.24,12.96c.1-7.62.29-15.53.48-23.72h0Zm34.77-91.55s6.67,5.91,9.05,8.1,8.67,4.29,8.67,4.29c6.1,2.19,10.67,2.48,11.53-.19.67-2.1-.67-3.91-3.05-5.81-2.95-2.48-18.2-13.43-18.2-13.43,0,0,15.43,9.91,20.39,12.38,4.95,2.48,13.81,2.95,17.15,2.86,3.33-.1,8.38-1.33,3.62-5.14-4.76-3.81-37.92-20.29-37.92-20.29,0,0,30.87,14.39,33.82,15.15,2.86.86,4.67,1.52,13.05,1.81,8.38.19,11.34.48,11.72-1.91.38-2.29-2.95-3.14-6.95-5.81-4-2.57-51.64-26.29-51.64-26.29l55.26,25.15s6.29.57,13.81.38c7.53-.19,11.15-1.52,9.15-1.91s-13.05-3.14-30.68-10.19c-17.62-7.05-31.91-15.05-42.68-21.34-10.77-6.19-23.05-7.62-30.68-2.29-7.62,5.34-5.14,17.91-7.43,22.96-1.91,4.1-6.29,3.91-9.34,3.72,0,.76,0,1.62-.1,2.48h3.52c1.71,0,4.57,0,6.38-2.67,2-3.05,2.1-6.29,2.19-8.86.1-3.91,1.14-11.15,6.29-15.34,5.43-4.38,16.01-3.72,21.53-1.52,2.76,1.05,8.29,4.1,13.53,7.05,4.57,2.57,8.76,4.67,11.91,6.1-2,0-8-2.95-12.77-5.34-5.14-2.67-10.48-5.34-13.24-6.38-8.1-3.24-16.86-1.24-20.1,1.33-4.76,3.81-5.62,10.57-5.72,14.29-.1,2.57-.19,6.19-2.48,9.53-2,3.14-5.14,3.33-7.15,3.33h-3.91c-.19,6.86-.38,15.81-.57,26.01,6.48,8.29,10.19,9.34,13.24,8.67,2.86-.57,0-7.05-.86-8.76,1.14,2,2.48,3.81,4,5.53,3.14,3.52,6.1,3.43,8.96,3.05,2.86-.38,2-2.57,1.33-5.43-.67-2.86-3.72-7.81-3.72-7.81,1.81,2.57,3.81,5.14,5.91,7.53,2.86,3.05,12.96,6.1,14.29,3.14.86-1.91.57-2.86-1.33-6.38-1.81-3.52-9.81-11.72-9.81-11.72Zm-36.68-29.15c1.52,0,3.05-.48,4.29-1.33,1.24-.86,2.29-2.1,2.86-3.43.57-1.43.76-2.95.48-4.48-.29-1.52-1.05-2.86-2.1-4-1.05-1.05-2.48-1.81-4-2.1-1.52-.29-3.05-.19-4.48.48-1.43.57-2.67,1.62-3.43,2.86-.86,1.24-1.33,2.76-1.33,4.29,0,1.05.19,2,.57,2.95.38.95.95,1.81,1.71,2.48.76.76,1.52,1.33,2.48,1.71.86.38,1.91.57,2.95.57h0Zm25.34,57.92s-.19-5.34-8.86-5.91c-8.86-.57-9.24,3.24-9.05,4.67h0c.67,0,1.24.19,1.24.38s-.48.38-1.05.38c.48,1.43,1.81,3.14,5.62,5.05,3.14,1.52,4.67,1.43,6.48,1.14,0,0,2.1,1.24,2.1,3.24s-3.33,5.62-18.96,13.43c.95-42.11,1.81-79.07,1.81-79.07h.95c.38,0,.76-.19,1.05-.48s.48-.67.48-1.05v-.48c0-.19,0-.38-.1-.57s-.19-.38-.38-.48c-.86.95-1.81,1.71-2.95,2.29-1.14.57-2.38.76-3.62.76s-2.48-.29-3.62-.76-2.19-1.33-2.95-2.29c-.19.19-.29.29-.38.48-.1.19-.1.38-.1.57v.48c0,.38.19.76.48,1.05s.67.48,1.05.48h.95s.67,35.92,1.33,77.26c1.33.67,2.67,1.33,4.19,2.1.19.1.48.19.67.29,3.52,1.71,6.48,3.14,8.96,4.48,8.38-3.24,16.58-6.95,19.05-12.19,4.38-9.72-4.38-15.24-4.38-15.24Zm-11.62-2.19c-.95,0-1.71-.48-1.71-1.05s.76-1.05,1.71-1.05,1.71.48,1.71,1.05-.76,1.05-1.71,1.05h0Zm-15.15,120.61c.76-.95,1.43-1.91,2.19-2.76.1-5.43.29-11.53.38-18.1-.95-.95-2-1.91-3.14-2.95h0c-.38-.29-.67-.67-1.05-.95-.48-.48-.95-.86-1.43-1.24-2.67,2.48-7.91,8-7.91,12.77,0,5.62,5.43,11.34,9.53,15.43.38-.86.86-1.52,1.43-2.19h0Zm-.57-22.67c.19,8.1.29,15.53.38,21.91-3.14-4.19-6.48-8.48-6.48-11.43,0-2.76,1.62-5.91,6.1-10.48h0Zm2.19-71.83c-18.58-8.96-22.39-13.05-22.39-15.05s2.1-3.24,2.1-3.24c1.81.38,3.33.38,6.48-1.14,3.81-1.81,5.14-3.62,5.62-5.05-.57,0-1.05-.19-1.05-.38s.57-.38,1.24-.38v-.1c.1-1.43-.38-5.14-9.15-4.57-8.67.57-8.86,5.91-8.86,5.91,0,0-8.76,5.62-4.19,15.15,4,8.48,22.77,12.96,33.63,17.82,10.77,4.86,10.1,9.05,10.1,9.05,0,3.62-7.24,7.43-12.96,11.43-5.72,4-17.82,10.96-17.82,19.15,0,7.53,7.53,13.34,14.86,19.82,7.43,6.48,9.81,10.38,9.81,14,0,4.95-8.19,11.62-12.38,19.91-4.19,8.29,4.1,21.15,1.52,14.39-2.67-6.76-1.24-11.53,2.19-16.29,4.19-5.81,13.15-11.53,13.15-19.24,0-6.48-9.43-14.1-9.43-14.1-8.38-8.38-13.72-13.15-13.72-17.34s4-7.91,15.24-15.24c11.15-7.24,17.72-10.1,17.72-17.15,0-6.19-3.14-8.38-21.72-17.34Zm-14.29-28.1c.95,0,1.71.48,1.71,1.05s-.76,1.05-1.71,1.05-1.71-.48-1.71-1.05.76-1.05,1.71-1.05h0Z" style="fill: #29576a; stroke: #29576a; stroke-width: .15px;"/>
    </g>
  </g>
</svg>